<svg width="389" height="166" viewBox="0 0 389 166" fill="none" xmlns="http://www.w3.org/2000/svg">
<path d="M314.015 74.6772C319.551 74.1313 325.057 73.4489 330.577 72.8521C341.658 71.7189 352.599 70.1896 363.611 68.8162C363.204 71.6999 362.827 74.6955 364.546 77.0765C364.546 77.0765 366.247 76.7812 368.337 76.2658C370.436 75.7785 372.964 75.1955 374.643 74.8127C389.189 78.3567 387.674 88.3671 381.749 96.6442C380.183 98.4082 378.423 100.395 376.412 102.441C374.64 102.557 372.877 102.682 371.121 102.799C363.153 103.395 355.307 104.149 347.409 105.189C339.542 106.036 331.662 107.052 323.668 108.14C307.721 110.137 303.04 111.778 285.741 112.804C261.44 113.542 309.765 109.778 285.741 112.804C314.331 110.456 267.917 115.706 296.979 112.747C304.254 112.041 299.832 111.878 307.064 111.179C314.309 110.575 321.521 109.975 328.699 109.381C335.902 108.782 343.046 108.422 350.2 107.976C357.374 107.471 364.473 107.192 371.597 106.932C366.423 111.247 360.078 114.994 352.239 116.513C333.484 118.624 314.991 120.716 296.654 122.776C296.506 121.422 282.329 124.569 269.734 125.972C257.135 127.281 244.572 125.354 232.055 126.233C207.019 128.067 157.486 138.205 157.182 139.121C157.053 139.142 156.934 139.155 156.814 139.168C156.934 139.155 157.053 139.142 157.182 139.121C156.907 139.927 157.167 140.497 160.376 140.117C157.168 140.497 156.904 139.925 157.182 139.121C207.784 131.82 243.58 127.813 294.574 123.031C255.064 127.539 228.153 131.94 189.32 137.014C150.495 142.063 111.449 147.163 71.1348 151.538C67.7048 151.911 60.8283 152.656 57.3898 153.028C43.303 150.452 29.4334 150.553 15.7195 151.985C18.5953 144.878 3.76039 132.833 31.4479 132.647C31.3418 131.3 31.1219 128.599 31.0079 127.252C16.9748 125.333 7.11908 119.887 3.78529 113.966C2.24801 111.014 2.27369 107.87 4.66871 104.962C7.15113 102.031 11.4087 99.3763 18.1788 97.3097C48.595 88.6859 90.1581 89.6494 127.58 82.6391C154.857 78.1636 182.091 73.5588 209.663 72.8337C247.637 72.1763 276.762 65.9459 314.63 65.4026C321.479 64.9709 330.677 62.7097 339.085 60.9639C347.446 59.1269 354.91 57.6135 358.542 59.0024C363.618 60.0045 364.23 62.8139 363.944 66.1272C352.846 67.9995 341.818 70.0611 330.67 71.6506C325.116 72.4847 319.585 73.3871 314.035 74.1277C308.476 74.8511 302.932 75.572 297.402 76.2903" fill="#060074" fill-opacity="0.33"/>
<path d="M63.6591 107.59C62.7118 107.59 61.9152 107.267 61.2693 106.621C60.6234 105.975 60.3004 105.179 60.3004 104.231V60.5032C60.3004 59.5128 60.6234 58.7162 61.2693 58.1133C61.9152 57.4674 62.7118 57.1445 63.6591 57.1445H79.0964C82.0245 57.1445 84.5866 57.7258 86.7827 58.8884C89.0219 60.008 90.7659 61.5797 92.0146 63.6036C93.3064 65.6274 93.9523 67.9527 93.9523 70.5794C93.9523 72.6894 93.371 74.6056 92.2084 76.328C91.0888 78.0074 89.5386 79.3423 87.5578 80.3327C90.3998 81.0216 92.6821 82.378 94.4045 84.4019C96.1269 86.4258 96.9881 89.074 96.9881 92.3466C96.9881 95.3178 96.2776 97.9445 94.8566 100.227C93.4787 102.509 91.5409 104.317 89.0434 105.652C86.5459 106.944 83.6824 107.59 80.4528 107.59H63.6591ZM67.0179 101.389H80.4528C82.4336 101.389 84.1776 101.045 85.6847 100.356C87.1918 99.6669 88.376 98.655 89.2372 97.3201C90.0984 95.9852 90.529 94.3274 90.529 92.3466C90.529 90.495 90.0984 88.9663 89.2372 87.7606C88.376 86.5549 87.1918 85.6507 85.6847 85.0478C84.1776 84.4019 82.4336 84.0789 80.4528 84.0789H67.0179V101.389ZM67.0179 77.8782H79.0964C81.5509 77.8782 83.5532 77.2754 85.1034 76.0697C86.6966 74.864 87.4932 73.0339 87.4932 70.5794C87.4932 68.125 86.6966 66.3164 85.1034 65.1538C83.5532 63.9481 81.5509 63.3452 79.0964 63.3452H67.0179V77.8782ZM114.728 107.59C112.834 107.59 111.154 107.073 109.69 106.04C108.226 105.006 107.085 103.607 106.267 101.841C105.449 100.033 105.04 97.966 105.04 95.6407V60.374C105.04 59.4267 105.341 58.6516 105.944 58.0488C106.547 57.4459 107.322 57.1445 108.269 57.1445C109.217 57.1445 109.992 57.4459 110.595 58.0488C111.197 58.6516 111.499 59.4267 111.499 60.374V95.6407C111.499 97.234 111.8 98.5473 112.403 99.5808C113.006 100.614 113.781 101.131 114.728 101.131H116.343C117.204 101.131 117.893 101.432 118.41 102.035C118.97 102.638 119.25 103.413 119.25 104.361C119.25 105.308 118.841 106.083 118.023 106.686C117.204 107.289 116.149 107.59 114.858 107.59H114.728ZM139.76 107.848C136.272 107.848 133.193 107.095 130.523 105.588C127.853 104.038 125.743 101.928 124.193 99.2578C122.686 96.545 121.932 93.4446 121.932 89.9567C121.932 86.4258 122.686 83.3254 124.193 80.6556C125.743 77.9428 127.853 75.8328 130.523 74.3257C133.193 72.7755 136.272 72.0004 139.76 72.0004C143.204 72.0004 146.262 72.7755 148.931 74.3257C151.601 75.8328 153.69 77.9428 155.197 80.6556C156.747 83.3254 157.522 86.4258 157.522 89.9567C157.522 93.4446 156.768 96.545 155.261 99.2578C153.754 101.928 151.666 104.038 148.996 105.588C146.326 107.095 143.247 107.848 139.76 107.848ZM139.76 102.035C141.999 102.035 143.979 101.519 145.702 100.485C147.424 99.4516 148.759 98.0306 149.707 96.2221C150.697 94.4135 151.192 92.3251 151.192 89.9567C151.192 87.5884 150.697 85.5 149.707 83.6914C148.759 81.8398 147.424 80.3973 145.702 79.3638C143.979 78.3303 141.999 77.8136 139.76 77.8136C137.52 77.8136 135.54 78.3303 133.817 79.3638C132.095 80.3973 130.738 81.8398 129.748 83.6914C128.757 85.5 128.262 87.5884 128.262 89.9567C128.262 92.3251 128.757 94.4135 129.748 96.2221C130.738 98.0306 132.095 99.4516 133.817 100.485C135.54 101.519 137.52 102.035 139.76 102.035ZM182.054 107.848C178.824 107.848 175.961 107.095 173.463 105.588C171.009 104.038 169.071 101.928 167.65 99.2578C166.229 96.545 165.519 93.4446 165.519 89.9567C165.519 86.4258 166.272 83.3254 167.779 80.6556C169.33 77.9428 171.44 75.8328 174.109 74.3257C176.779 72.7755 179.858 72.0004 183.346 72.0004C186.791 72.0004 189.848 72.7755 192.518 74.3257C195.188 75.8328 197.276 77.9428 198.783 80.6556C200.333 83.3254 201.108 86.4258 201.108 89.9567H197.298C197.298 93.4446 196.63 96.545 195.295 99.2578C194.003 101.928 192.216 104.038 189.934 105.588C187.652 107.095 185.025 107.848 182.054 107.848ZM183.217 122.252C180.159 122.252 177.296 121.649 174.626 120.444C171.956 119.238 169.696 117.473 167.844 115.147C167.284 114.415 167.069 113.662 167.198 112.887C167.37 112.111 167.801 111.487 168.49 111.013C169.265 110.497 170.062 110.324 170.88 110.497C171.741 110.669 172.43 111.1 172.947 111.789C174.109 113.253 175.573 114.394 177.339 115.212C179.104 116.03 181.107 116.439 183.346 116.439C185.413 116.439 187.307 115.944 189.03 114.953C190.795 113.963 192.195 112.499 193.228 110.561C194.262 108.624 194.778 106.255 194.778 103.456V94.2843L196.91 88.6003L201.108 89.9567V103.908C201.108 107.31 200.355 110.389 198.848 113.145C197.341 115.944 195.231 118.161 192.518 119.798C189.848 121.434 186.748 122.252 183.217 122.252ZM183.346 102.035C185.585 102.035 187.566 101.519 189.288 100.485C191.011 99.4516 192.346 98.0306 193.293 96.2221C194.283 94.4135 194.778 92.3251 194.778 89.9567C194.778 87.5884 194.283 85.5 193.293 83.6914C192.346 81.8398 191.011 80.3973 189.288 79.3638C187.566 78.3303 185.585 77.8136 183.346 77.8136C181.107 77.8136 179.126 78.3303 177.403 79.3638C175.681 80.3973 174.325 81.8398 173.334 83.6914C172.344 85.5 171.849 87.5884 171.849 89.9567C171.849 92.3251 172.344 94.4135 173.334 96.2221C174.325 98.0306 175.681 99.4516 177.403 100.485C179.126 101.519 181.107 102.035 183.346 102.035ZM225.64 107.848C222.411 107.848 219.547 107.095 217.05 105.588C214.595 104.038 212.658 101.928 211.237 99.2578C209.816 96.545 209.105 93.4446 209.105 89.9567C209.105 86.4258 209.859 83.3254 211.366 80.6556C212.916 77.9428 215.026 75.8328 217.696 74.3257C220.365 72.7755 223.444 72.0004 226.932 72.0004C230.377 72.0004 233.434 72.7755 236.104 74.3257C238.774 75.8328 240.862 77.9428 242.369 80.6556C243.92 83.3254 244.695 86.4258 244.695 89.9567H240.884C240.884 93.4446 240.216 96.545 238.882 99.2578C237.59 101.928 235.803 104.038 233.52 105.588C231.238 107.095 228.612 107.848 225.64 107.848ZM226.803 122.252C223.746 122.252 220.882 121.649 218.212 120.444C215.543 119.238 213.282 117.473 211.43 115.147C210.871 114.415 210.655 113.662 210.784 112.887C210.957 112.111 211.387 111.487 212.076 111.013C212.851 110.497 213.648 110.324 214.466 110.497C215.327 110.669 216.016 111.1 216.533 111.789C217.696 113.253 219.16 114.394 220.925 115.212C222.691 116.03 224.693 116.439 226.932 116.439C228.999 116.439 230.894 115.944 232.616 114.953C234.382 113.963 235.781 112.499 236.815 110.561C237.848 108.624 238.365 106.255 238.365 103.456V94.2843L240.496 88.6003L244.695 89.9567V103.908C244.695 107.31 243.941 110.389 242.434 113.145C240.927 115.944 238.817 118.161 236.104 119.798C233.434 121.434 230.334 122.252 226.803 122.252ZM226.932 102.035C229.171 102.035 231.152 101.519 232.875 100.485C234.597 99.4516 235.932 98.0306 236.879 96.2221C237.87 94.4135 238.365 92.3251 238.365 89.9567C238.365 87.5884 237.87 85.5 236.879 83.6914C235.932 81.8398 234.597 80.3973 232.875 79.3638C231.152 78.3303 229.171 77.8136 226.932 77.8136C224.693 77.8136 222.712 78.3303 220.99 79.3638C219.267 80.3973 217.911 81.8398 216.921 83.6914C215.93 85.5 215.435 87.5884 215.435 89.9567C215.435 92.3251 215.93 94.4135 216.921 96.2221C217.911 98.0306 219.267 99.4516 220.99 100.485C222.712 101.519 224.693 102.035 226.932 102.035ZM271.1 107.848C267.526 107.848 264.339 107.095 261.54 105.588C258.784 104.038 256.61 101.928 255.017 99.2578C253.466 96.545 252.691 93.4446 252.691 89.9567C252.691 86.4258 253.423 83.3254 254.887 80.6556C256.395 77.9428 258.462 75.8328 261.088 74.3257C263.715 72.7755 266.729 72.0004 270.131 72.0004C273.49 72.0004 276.375 72.754 278.786 74.2611C281.198 75.7252 283.028 77.7706 284.276 80.3973C285.568 82.9809 286.214 85.9736 286.214 89.3754C286.214 90.1936 285.934 90.8825 285.374 91.4423C284.815 91.9591 284.104 92.2174 283.243 92.2174H257.213V87.0501H283.049L280.401 88.8587C280.358 86.7057 279.927 84.7894 279.109 83.1101C278.291 81.3877 277.128 80.0312 275.621 79.0408C274.114 78.0504 272.284 77.5553 270.131 77.5553C267.677 77.5553 265.567 78.0935 263.801 79.17C262.079 80.2465 260.765 81.7321 259.861 83.6268C258.957 85.4784 258.505 87.5884 258.505 89.9567C258.505 92.3251 259.043 94.435 260.119 96.2867C261.196 98.1383 262.681 99.6023 264.576 100.679C266.471 101.755 268.645 102.294 271.1 102.294C272.435 102.294 273.791 102.057 275.169 101.583C276.59 101.066 277.731 100.485 278.592 99.8392C279.238 99.3655 279.927 99.1287 280.659 99.1287C281.434 99.0856 282.102 99.3009 282.662 99.7746C283.394 100.42 283.781 101.131 283.824 101.906C283.867 102.681 283.523 103.349 282.791 103.908C281.327 105.071 279.497 106.018 277.301 106.75C275.148 107.482 273.081 107.848 271.1 107.848ZM324.458 107.655C323.511 107.655 322.714 107.353 322.068 106.75C321.465 106.104 321.164 105.308 321.164 104.361V88.4711C321.164 86.0167 320.712 84.0144 319.808 82.4642C318.903 80.914 317.676 79.7729 316.126 79.0408C314.619 78.2658 312.875 77.8782 310.894 77.8782C309.085 77.8782 307.449 78.2442 305.985 78.9763C304.521 79.7083 303.358 80.6987 302.497 81.9474C301.636 83.1531 301.205 84.5526 301.205 86.1459H297.136C297.136 83.433 297.782 81.0216 299.074 78.9117C300.409 76.7586 302.217 75.0577 304.499 73.809C306.782 72.5602 309.344 71.9358 312.186 71.9358C315.157 71.9358 317.805 72.5817 320.13 73.8736C322.499 75.1223 324.35 76.9739 325.685 79.4284C327.063 81.8829 327.752 84.8971 327.752 88.4711V104.361C327.752 105.308 327.429 106.104 326.783 106.75C326.181 107.353 325.405 107.655 324.458 107.655ZM297.911 107.655C296.964 107.655 296.167 107.353 295.521 106.75C294.918 106.104 294.617 105.308 294.617 104.361V75.5529C294.617 74.5625 294.918 73.7659 295.521 73.1631C296.167 72.5602 296.964 72.2588 297.911 72.2588C298.902 72.2588 299.698 72.5602 300.301 73.1631C300.904 73.7659 301.205 74.5625 301.205 75.5529V104.361C301.205 105.308 300.904 106.104 300.301 106.75C299.698 107.353 298.902 107.655 297.911 107.655Z" fill="#110476"/>
<path d="M40.1221 141.993C39.789 141.993 39.5088 141.879 39.2817 141.652C39.0546 141.425 38.941 141.145 38.941 140.812V125.435C38.941 125.087 39.0546 124.806 39.2817 124.595C39.5088 124.367 39.789 124.254 40.1221 124.254H50.3885C50.7368 124.254 51.0169 124.36 51.2289 124.572C51.4409 124.769 51.5469 125.034 51.5469 125.367C51.5469 125.685 51.4409 125.942 51.2289 126.139C51.0169 126.336 50.7368 126.434 50.3885 126.434H41.3032V131.954H47.8219C48.1702 131.954 48.4503 132.06 48.6623 132.272C48.8743 132.468 48.9803 132.726 48.9803 133.044C48.9803 133.362 48.8743 133.627 48.6623 133.839C48.4503 134.036 48.1702 134.134 47.8219 134.134H41.3032V139.812H50.3885C50.7368 139.812 51.0169 139.911 51.2289 140.108C51.4409 140.305 51.5469 140.562 51.5469 140.88C51.5469 141.213 51.4409 141.486 51.2289 141.698C51.0169 141.894 50.7368 141.993 50.3885 141.993H40.1221ZM59.7963 142.084C58.6909 142.084 57.6991 141.811 56.8208 141.266C55.9426 140.706 55.246 139.956 54.7312 139.017C54.2315 138.064 53.9817 136.988 53.9817 135.792C53.9817 134.596 54.2542 133.521 54.7994 132.567C55.3596 131.613 56.1092 130.863 57.048 130.318C58.0019 129.758 59.0695 129.478 60.2506 129.478C61.4316 129.478 62.4916 129.758 63.4304 130.318C64.3692 130.863 65.1112 131.613 65.6563 132.567C66.2166 133.521 66.4967 134.596 66.4967 135.792H65.6109C65.6109 136.988 65.3535 138.064 64.8386 139.017C64.339 139.956 63.65 140.706 62.7717 141.266C61.8935 141.811 60.9017 142.084 59.7963 142.084ZM60.2506 140.04C61.0228 140.04 61.7118 139.858 62.3175 139.494C62.9232 139.116 63.4001 138.609 63.7484 137.973C64.0967 137.322 64.2708 136.595 64.2708 135.792C64.2708 134.974 64.0967 134.248 63.7484 133.612C63.4001 132.961 62.9232 132.453 62.3175 132.09C61.7118 131.711 61.0228 131.522 60.2506 131.522C59.4934 131.522 58.8045 131.711 58.1836 132.09C57.578 132.453 57.0934 132.961 56.73 133.612C56.3817 134.248 56.2076 134.974 56.2076 135.792C56.2076 136.595 56.3817 137.322 56.73 137.973C57.0934 138.609 57.578 139.116 58.1836 139.494C58.8045 139.858 59.4934 140.04 60.2506 140.04ZM65.3383 142.016C65.0052 142.016 64.7251 141.91 64.4979 141.698C64.286 141.471 64.18 141.19 64.18 140.857V137.382L64.6115 134.974L66.4967 135.792V140.857C66.4967 141.19 66.3832 141.471 66.156 141.698C65.944 141.91 65.6715 142.016 65.3383 142.016ZM74.4647 142.084C73.4047 142.084 72.4205 141.925 71.5119 141.607C70.6185 141.274 69.922 140.857 69.4223 140.358C69.1952 140.115 69.0967 139.843 69.127 139.54C69.1725 139.222 69.3239 138.964 69.5813 138.768C69.8841 138.525 70.1794 138.427 70.4671 138.472C70.77 138.503 71.0274 138.631 71.2394 138.858C71.4968 139.146 71.9056 139.419 72.4659 139.676C73.0413 139.918 73.6773 140.04 74.3738 140.04C75.2521 140.04 75.9183 139.896 76.3726 139.608C76.842 139.32 77.0843 138.949 77.0994 138.495C77.1146 138.041 76.895 137.647 76.4407 137.314C76.0016 136.981 75.1915 136.708 74.0104 136.496C72.481 136.193 71.3681 135.739 70.6715 135.133C69.9901 134.528 69.6494 133.786 69.6494 132.908C69.6494 132.135 69.8766 131.499 70.3308 131C70.7851 130.485 71.3681 130.106 72.0798 129.864C72.7914 129.607 73.5334 129.478 74.3057 129.478C75.3051 129.478 76.1909 129.637 76.9631 129.955C77.7354 130.273 78.3486 130.712 78.8029 131.272C79.0149 131.515 79.1133 131.772 79.0982 132.044C79.083 132.302 78.9543 132.521 78.7121 132.703C78.4698 132.87 78.1821 132.923 77.849 132.862C77.5158 132.802 77.2357 132.665 77.0086 132.453C76.63 132.09 76.2212 131.84 75.782 131.704C75.3429 131.567 74.8356 131.499 74.2602 131.499C73.594 131.499 73.0262 131.613 72.5567 131.84C72.1025 132.067 71.8753 132.4 71.8753 132.839C71.8753 133.112 71.9435 133.362 72.0798 133.589C72.2312 133.801 72.5189 133.998 72.9429 134.18C73.3669 134.346 73.9877 134.513 74.8054 134.679C75.941 134.906 76.8344 135.194 77.4855 135.542C78.1518 135.891 78.6288 136.299 78.9165 136.769C79.2042 137.223 79.348 137.753 79.348 138.359C79.348 139.055 79.1588 139.684 78.7802 140.244C78.4168 140.804 77.8717 141.251 77.1448 141.584C76.4332 141.917 75.5398 142.084 74.4647 142.084ZM84.5032 147.444C84.3518 147.444 84.1701 147.399 83.9581 147.308C83.2919 147.005 83.1102 146.528 83.413 145.877L90.3406 130.227C90.6434 129.591 91.1204 129.41 91.7715 129.682C92.4529 129.97 92.6422 130.447 92.3393 131.113L85.3891 146.74C85.2074 147.209 84.9121 147.444 84.5032 147.444ZM87.1834 141.493C86.8957 141.614 86.6232 141.63 86.3657 141.539C86.1235 141.433 85.9266 141.236 85.7752 140.948L80.5738 131.068C80.4224 130.78 80.3997 130.508 80.5057 130.25C80.6268 129.978 80.8313 129.781 81.119 129.66C81.4067 129.538 81.6792 129.531 81.9366 129.637C82.1941 129.728 82.3909 129.917 82.5272 130.205L87.5014 140.085C87.6528 140.373 87.7058 140.653 87.6604 140.925C87.6301 141.183 87.4711 141.372 87.1834 141.493ZM105.695 141.993C104.938 141.993 104.257 141.804 103.651 141.425C103.046 141.031 102.569 140.501 102.22 139.835C101.872 139.169 101.698 138.419 101.698 137.587V126.752C101.698 126.419 101.804 126.147 102.016 125.935C102.228 125.723 102.5 125.617 102.834 125.617C103.167 125.617 103.439 125.723 103.651 125.935C103.863 126.147 103.969 126.419 103.969 126.752V137.587C103.969 138.192 104.136 138.699 104.469 139.108C104.802 139.517 105.211 139.722 105.695 139.722H106.468C106.74 139.722 106.967 139.828 107.149 140.04C107.346 140.252 107.444 140.524 107.444 140.857C107.444 141.19 107.316 141.463 107.058 141.675C106.816 141.887 106.498 141.993 106.104 141.993H105.695ZM100.653 131.976C100.335 131.976 100.078 131.885 99.8809 131.704C99.684 131.522 99.5856 131.295 99.5856 131.022C99.5856 130.72 99.684 130.477 99.8809 130.296C100.078 130.114 100.335 130.023 100.653 130.023H105.9C106.218 130.023 106.475 130.114 106.672 130.296C106.869 130.477 106.967 130.72 106.967 131.022C106.967 131.295 106.869 131.522 106.672 131.704C106.475 131.885 106.218 131.976 105.9 131.976H100.653ZM115.925 142.084C114.698 142.084 113.616 141.819 112.677 141.289C111.738 140.744 110.996 140.002 110.451 139.063C109.921 138.109 109.656 137.019 109.656 135.792C109.656 134.551 109.921 133.46 110.451 132.521C110.996 131.567 111.738 130.826 112.677 130.296C113.616 129.75 114.698 129.478 115.925 129.478C117.136 129.478 118.211 129.75 119.15 130.296C120.089 130.826 120.823 131.567 121.353 132.521C121.898 133.46 122.171 134.551 122.171 135.792C122.171 137.019 121.906 138.109 121.376 139.063C120.846 140.002 120.112 140.744 119.173 141.289C118.234 141.819 117.151 142.084 115.925 142.084ZM115.925 140.04C116.712 140.04 117.409 139.858 118.014 139.494C118.62 139.131 119.09 138.631 119.423 137.995C119.771 137.359 119.945 136.625 119.945 135.792C119.945 134.959 119.771 134.225 119.423 133.589C119.09 132.938 118.62 132.431 118.014 132.067C117.409 131.704 116.712 131.522 115.925 131.522C115.137 131.522 114.441 131.704 113.835 132.067C113.23 132.431 112.753 132.938 112.404 133.589C112.056 134.225 111.882 134.959 111.882 135.792C111.882 136.625 112.056 137.359 112.404 137.995C112.753 138.631 113.23 139.131 113.835 139.494C114.441 139.858 115.137 140.04 115.925 140.04ZM135.135 141.993C134.893 141.993 134.666 141.925 134.454 141.788C134.257 141.637 134.121 141.455 134.045 141.243L130.683 131.159C130.562 130.689 130.562 130.311 130.683 130.023C130.82 129.72 131.107 129.569 131.546 129.569C131.834 129.569 132.069 129.652 132.251 129.819C132.447 129.97 132.606 130.235 132.728 130.614L135.589 139.563H134.794L137.497 130.432C137.573 130.174 137.702 129.97 137.883 129.819C138.065 129.652 138.315 129.569 138.633 129.569C138.936 129.569 139.178 129.652 139.36 129.819C139.557 129.97 139.685 130.174 139.746 130.432L141.949 139.017H141.608L144.289 130.614C144.501 129.917 144.894 129.569 145.47 129.569C145.894 129.569 146.181 129.72 146.333 130.023C146.484 130.311 146.477 130.689 146.31 131.159L142.949 141.243C142.888 141.455 142.759 141.637 142.562 141.788C142.366 141.925 142.138 141.993 141.881 141.993C141.639 141.993 141.412 141.925 141.2 141.788C140.988 141.637 140.851 141.455 140.791 141.243L138.451 132.59H138.678L136.225 141.243C136.165 141.455 136.029 141.637 135.817 141.788C135.62 141.925 135.393 141.993 135.135 141.993ZM149.911 134.225C149.911 133.316 150.131 132.506 150.57 131.795C151.024 131.068 151.63 130.492 152.387 130.068C153.144 129.644 153.977 129.432 154.885 129.432C155.794 129.432 156.468 129.584 156.907 129.887C157.361 130.174 157.535 130.523 157.429 130.932C157.384 131.144 157.293 131.31 157.157 131.431C157.035 131.537 156.892 131.605 156.725 131.636C156.559 131.666 156.377 131.658 156.18 131.613C155.211 131.416 154.34 131.401 153.568 131.567C152.796 131.734 152.182 132.044 151.728 132.499C151.289 132.953 151.069 133.528 151.069 134.225H149.911ZM149.934 141.993C149.57 141.993 149.29 141.902 149.093 141.72C148.897 141.524 148.798 141.236 148.798 140.857V130.704C148.798 130.341 148.897 130.061 149.093 129.864C149.29 129.667 149.57 129.569 149.934 129.569C150.312 129.569 150.592 129.667 150.774 129.864C150.971 130.046 151.069 130.326 151.069 130.704V140.857C151.069 141.221 150.971 141.501 150.774 141.698C150.592 141.894 150.312 141.993 149.934 141.993ZM161.23 141.993C160.897 141.993 160.617 141.887 160.389 141.675C160.177 141.448 160.071 141.168 160.071 140.835V130.727C160.071 130.379 160.177 130.099 160.389 129.887C160.617 129.675 160.897 129.569 161.23 129.569C161.578 129.569 161.858 129.675 162.07 129.887C162.282 130.099 162.388 130.379 162.388 130.727V140.835C162.388 141.168 162.282 141.448 162.07 141.675C161.858 141.887 161.578 141.993 161.23 141.993ZM161.23 127.547C160.821 127.547 160.465 127.403 160.162 127.116C159.875 126.813 159.731 126.457 159.731 126.048C159.731 125.639 159.875 125.291 160.162 125.003C160.465 124.701 160.821 124.549 161.23 124.549C161.639 124.549 161.987 124.701 162.275 125.003C162.577 125.291 162.729 125.639 162.729 126.048C162.729 126.457 162.577 126.813 162.275 127.116C161.987 127.403 161.639 127.547 161.23 127.547ZM171.218 141.993C170.461 141.993 169.78 141.804 169.174 141.425C168.568 141.031 168.091 140.501 167.743 139.835C167.395 139.169 167.221 138.419 167.221 137.587V126.752C167.221 126.419 167.327 126.147 167.539 125.935C167.751 125.723 168.023 125.617 168.356 125.617C168.689 125.617 168.962 125.723 169.174 125.935C169.386 126.147 169.492 126.419 169.492 126.752V137.587C169.492 138.192 169.658 138.699 169.992 139.108C170.325 139.517 170.734 139.722 171.218 139.722H171.99C172.263 139.722 172.49 139.828 172.672 140.04C172.869 140.252 172.967 140.524 172.967 140.857C172.967 141.19 172.838 141.463 172.581 141.675C172.339 141.887 172.021 141.993 171.627 141.993H171.218ZM166.176 131.976C165.858 131.976 165.6 131.885 165.404 131.704C165.207 131.522 165.108 131.295 165.108 131.022C165.108 130.72 165.207 130.477 165.404 130.296C165.6 130.114 165.858 130.023 166.176 130.023H171.423C171.741 130.023 171.998 130.114 172.195 130.296C172.392 130.477 172.49 130.72 172.49 131.022C172.49 131.295 172.392 131.522 172.195 131.704C171.998 131.885 171.741 131.976 171.423 131.976H166.176ZM181.652 142.084C180.395 142.084 179.275 141.819 178.29 141.289C177.321 140.744 176.557 140.002 175.996 139.063C175.451 138.109 175.179 137.019 175.179 135.792C175.179 134.551 175.436 133.46 175.951 132.521C176.481 131.567 177.208 130.826 178.131 130.296C179.055 129.75 180.115 129.478 181.311 129.478C182.492 129.478 183.507 129.743 184.355 130.273C185.203 130.788 185.846 131.507 186.285 132.431C186.74 133.339 186.967 134.392 186.967 135.588C186.967 135.875 186.868 136.118 186.672 136.315C186.475 136.496 186.225 136.587 185.922 136.587H176.769V134.77H185.854L184.923 135.406C184.907 134.649 184.756 133.975 184.468 133.385C184.181 132.779 183.772 132.302 183.242 131.954C182.712 131.605 182.068 131.431 181.311 131.431C180.448 131.431 179.706 131.62 179.085 131.999C178.48 132.378 178.018 132.9 177.7 133.566C177.382 134.217 177.223 134.959 177.223 135.792C177.223 136.625 177.412 137.367 177.791 138.018C178.169 138.669 178.692 139.184 179.358 139.563C180.024 139.941 180.789 140.13 181.652 140.13C182.121 140.13 182.598 140.047 183.083 139.881C183.583 139.699 183.984 139.494 184.287 139.267C184.514 139.101 184.756 139.017 185.013 139.017C185.286 139.002 185.521 139.078 185.718 139.245C185.975 139.472 186.111 139.722 186.126 139.994C186.142 140.267 186.02 140.501 185.763 140.698C185.248 141.107 184.605 141.44 183.832 141.698C183.075 141.955 182.348 142.084 181.652 142.084ZM189.717 145.922C189.536 145.922 189.392 145.862 189.286 145.741C189.195 145.619 189.149 145.483 189.149 145.332C189.149 145.029 189.233 144.764 189.399 144.537C189.581 144.325 189.755 144.09 189.922 143.833C190.103 143.575 190.194 143.265 190.194 142.901C190.194 142.644 190.134 142.432 190.013 142.265C189.891 142.099 189.755 141.947 189.604 141.811C189.452 141.66 189.316 141.493 189.195 141.312C189.074 141.13 189.013 140.903 189.013 140.63C189.013 140.221 189.149 139.881 189.422 139.608C189.695 139.335 190.066 139.199 190.535 139.199C191.11 139.199 191.542 139.396 191.83 139.79C192.132 140.183 192.291 140.713 192.307 141.38C192.307 141.864 192.223 142.371 192.057 142.901C191.905 143.431 191.693 143.924 191.421 144.378C191.163 144.832 190.883 145.203 190.58 145.491C190.278 145.778 189.99 145.922 189.717 145.922ZM203.552 141.993C203.219 141.993 202.938 141.879 202.711 141.652C202.484 141.425 202.371 141.145 202.371 140.812V125.435C202.371 125.087 202.484 124.806 202.711 124.595C202.938 124.367 203.219 124.254 203.552 124.254H213.818C214.166 124.254 214.446 124.36 214.658 124.572C214.87 124.769 214.976 125.034 214.976 125.367C214.976 125.685 214.87 125.942 214.658 126.139C214.446 126.336 214.166 126.434 213.818 126.434H204.733V131.954H211.251C211.6 131.954 211.88 132.06 212.092 132.272C212.304 132.468 212.41 132.726 212.41 133.044C212.41 133.362 212.304 133.627 212.092 133.839C211.88 134.036 211.6 134.134 211.251 134.134H204.733V139.812H213.818C214.166 139.812 214.446 139.911 214.658 140.108C214.87 140.305 214.976 140.562 214.976 140.88C214.976 141.213 214.87 141.486 214.658 141.698C214.446 141.894 214.166 141.993 213.818 141.993H203.552ZM223.226 142.084C222.12 142.084 221.129 141.811 220.25 141.266C219.372 140.706 218.676 139.956 218.161 139.017C217.661 138.064 217.411 136.988 217.411 135.792C217.411 134.596 217.684 133.521 218.229 132.567C218.789 131.613 219.539 130.863 220.478 130.318C221.431 129.758 222.499 129.478 223.68 129.478C224.861 129.478 225.921 129.758 226.86 130.318C227.799 130.863 228.541 131.613 229.086 132.567C229.646 133.521 229.926 134.596 229.926 135.792H229.04C229.04 136.988 228.783 138.064 228.268 139.017C227.768 139.956 227.08 140.706 226.201 141.266C225.323 141.811 224.331 142.084 223.226 142.084ZM223.68 140.04C224.452 140.04 225.141 139.858 225.747 139.494C226.353 139.116 226.83 138.609 227.178 137.973C227.526 137.322 227.7 136.595 227.7 135.792C227.7 134.974 227.526 134.248 227.178 133.612C226.83 132.961 226.353 132.453 225.747 132.09C225.141 131.711 224.452 131.522 223.68 131.522C222.923 131.522 222.234 131.711 221.613 132.09C221.007 132.453 220.523 132.961 220.16 133.612C219.811 134.248 219.637 134.974 219.637 135.792C219.637 136.595 219.811 137.322 220.16 137.973C220.523 138.609 221.007 139.116 221.613 139.494C222.234 139.858 222.923 140.04 223.68 140.04ZM228.768 142.016C228.435 142.016 228.155 141.91 227.927 141.698C227.715 141.471 227.609 141.19 227.609 140.857V137.382L228.041 134.974L229.926 135.792V140.857C229.926 141.19 229.813 141.471 229.586 141.698C229.374 141.91 229.101 142.016 228.768 142.016ZM237.894 142.084C236.834 142.084 235.85 141.925 234.941 141.607C234.048 141.274 233.352 140.857 232.852 140.358C232.625 140.115 232.526 139.843 232.557 139.54C232.602 139.222 232.753 138.964 233.011 138.768C233.314 138.525 233.609 138.427 233.897 138.472C234.199 138.503 234.457 138.631 234.669 138.858C234.926 139.146 235.335 139.419 235.895 139.676C236.471 139.918 237.107 140.04 237.803 140.04C238.682 140.04 239.348 139.896 239.802 139.608C240.272 139.32 240.514 138.949 240.529 138.495C240.544 138.041 240.325 137.647 239.87 137.314C239.431 136.981 238.621 136.708 237.44 136.496C235.911 136.193 234.798 135.739 234.101 135.133C233.42 134.528 233.079 133.786 233.079 132.908C233.079 132.135 233.306 131.499 233.76 131C234.215 130.485 234.798 130.106 235.509 129.864C236.221 129.607 236.963 129.478 237.735 129.478C238.735 129.478 239.62 129.637 240.393 129.955C241.165 130.273 241.778 130.712 242.232 131.272C242.444 131.515 242.543 131.772 242.528 132.044C242.513 132.302 242.384 132.521 242.142 132.703C241.899 132.87 241.612 132.923 241.278 132.862C240.945 132.802 240.665 132.665 240.438 132.453C240.06 132.09 239.651 131.84 239.212 131.704C238.772 131.567 238.265 131.499 237.69 131.499C237.024 131.499 236.456 131.613 235.986 131.84C235.532 132.067 235.305 132.4 235.305 132.839C235.305 133.112 235.373 133.362 235.509 133.589C235.661 133.801 235.948 133.998 236.372 134.18C236.796 134.346 237.417 134.513 238.235 134.679C239.371 134.906 240.264 135.194 240.915 135.542C241.581 135.891 242.058 136.299 242.346 136.769C242.634 137.223 242.778 137.753 242.778 138.359C242.778 139.055 242.588 139.684 242.21 140.244C241.846 140.804 241.301 141.251 240.574 141.584C239.863 141.917 238.969 142.084 237.894 142.084ZM247.933 147.444C247.781 147.444 247.6 147.399 247.388 147.308C246.721 147.005 246.54 146.528 246.843 145.877L253.77 130.227C254.073 129.591 254.55 129.41 255.201 129.682C255.882 129.97 256.072 130.447 255.769 131.113L248.819 146.74C248.637 147.209 248.342 147.444 247.933 147.444ZM250.613 141.493C250.325 141.614 250.053 141.63 249.795 141.539C249.553 141.433 249.356 141.236 249.205 140.948L244.003 131.068C243.852 130.78 243.829 130.508 243.935 130.25C244.056 129.978 244.261 129.781 244.548 129.66C244.836 129.538 245.109 129.531 245.366 129.637C245.624 129.728 245.82 129.917 245.957 130.205L250.931 140.085C251.082 140.373 251.135 140.653 251.09 140.925C251.06 141.183 250.901 141.372 250.613 141.493ZM269.125 141.993C268.368 141.993 267.687 141.804 267.081 141.425C266.475 141.031 265.998 140.501 265.65 139.835C265.302 139.169 265.127 138.419 265.127 137.587V126.752C265.127 126.419 265.233 126.147 265.445 125.935C265.657 125.723 265.93 125.617 266.263 125.617C266.596 125.617 266.869 125.723 267.081 125.935C267.293 126.147 267.399 126.419 267.399 126.752V137.587C267.399 138.192 267.565 138.699 267.899 139.108C268.232 139.517 268.64 139.722 269.125 139.722H269.897C270.17 139.722 270.397 139.828 270.579 140.04C270.776 140.252 270.874 140.524 270.874 140.857C270.874 141.19 270.745 141.463 270.488 141.675C270.246 141.887 269.928 141.993 269.534 141.993H269.125ZM264.083 131.976C263.765 131.976 263.507 131.885 263.31 131.704C263.114 131.522 263.015 131.295 263.015 131.022C263.015 130.72 263.114 130.477 263.31 130.296C263.507 130.114 263.765 130.023 264.083 130.023H269.329C269.647 130.023 269.905 130.114 270.102 130.296C270.299 130.477 270.397 130.72 270.397 131.022C270.397 131.295 270.299 131.522 270.102 131.704C269.905 131.885 269.647 131.976 269.329 131.976H264.083ZM279.354 142.084C278.128 142.084 277.045 141.819 276.106 141.289C275.168 140.744 274.426 140.002 273.88 139.063C273.35 138.109 273.085 137.019 273.085 135.792C273.085 134.551 273.35 133.46 273.88 132.521C274.426 131.567 275.168 130.826 276.106 130.296C277.045 129.75 278.128 129.478 279.354 129.478C280.566 129.478 281.641 129.75 282.58 130.296C283.518 130.826 284.253 131.567 284.783 132.521C285.328 133.46 285.601 134.551 285.601 135.792C285.601 137.019 285.336 138.109 284.806 139.063C284.276 140.002 283.541 140.744 282.602 141.289C281.664 141.819 280.581 142.084 279.354 142.084ZM279.354 140.04C280.142 140.04 280.838 139.858 281.444 139.494C282.05 139.131 282.519 138.631 282.852 137.995C283.2 137.359 283.375 136.625 283.375 135.792C283.375 134.959 283.2 134.225 282.852 133.589C282.519 132.938 282.05 132.431 281.444 132.067C280.838 131.704 280.142 131.522 279.354 131.522C278.567 131.522 277.87 131.704 277.265 132.067C276.659 132.431 276.182 132.938 275.834 133.589C275.486 134.225 275.311 134.959 275.311 135.792C275.311 136.625 275.486 137.359 275.834 137.995C276.182 138.631 276.659 139.131 277.265 139.494C277.87 139.858 278.567 140.04 279.354 140.04ZM297.111 141.993C296.778 141.993 296.498 141.879 296.271 141.652C296.044 141.425 295.93 141.145 295.93 140.812V125.435C295.93 125.087 296.044 124.806 296.271 124.595C296.498 124.367 296.778 124.254 297.111 124.254H301.199C302.335 124.254 303.342 124.496 304.22 124.981C305.099 125.45 305.78 126.101 306.265 126.934C306.764 127.767 307.014 128.736 307.014 129.841C307.014 130.871 306.764 131.787 306.265 132.59C305.78 133.392 305.099 134.021 304.22 134.475C303.342 134.929 302.335 135.156 301.199 135.156H298.292V140.812C298.292 141.145 298.179 141.425 297.951 141.652C297.739 141.879 297.459 141.993 297.111 141.993ZM306.537 141.993C306.325 141.993 306.128 141.947 305.947 141.857C305.78 141.766 305.636 141.622 305.515 141.425L301.427 134.838L303.721 134.18L307.446 140.176C307.718 140.615 307.756 141.031 307.559 141.425C307.362 141.804 307.022 141.993 306.537 141.993ZM298.292 132.976H301.199C301.896 132.976 302.509 132.847 303.039 132.59C303.569 132.317 303.986 131.946 304.288 131.477C304.591 130.992 304.743 130.447 304.743 129.841C304.743 129.175 304.591 128.584 304.288 128.07C303.986 127.555 303.569 127.154 303.039 126.866C302.509 126.578 301.896 126.434 301.199 126.434H298.292V132.976ZM315.891 142.084C314.634 142.084 313.514 141.819 312.53 141.289C311.561 140.744 310.796 140.002 310.236 139.063C309.691 138.109 309.418 137.019 309.418 135.792C309.418 134.551 309.675 133.46 310.19 132.521C310.72 131.567 311.447 130.826 312.371 130.296C313.294 129.75 314.354 129.478 315.551 129.478C316.732 129.478 317.746 129.743 318.594 130.273C319.442 130.788 320.086 131.507 320.525 132.431C320.979 133.339 321.206 134.392 321.206 135.588C321.206 135.875 321.108 136.118 320.911 136.315C320.714 136.496 320.464 136.587 320.161 136.587H311.008V134.77H320.093L319.162 135.406C319.147 134.649 318.995 133.975 318.708 133.385C318.42 132.779 318.011 132.302 317.481 131.954C316.951 131.605 316.308 131.431 315.551 131.431C314.687 131.431 313.945 131.62 313.325 131.999C312.719 132.378 312.257 132.9 311.939 133.566C311.621 134.217 311.462 134.959 311.462 135.792C311.462 136.625 311.651 137.367 312.03 138.018C312.409 138.669 312.931 139.184 313.597 139.563C314.263 139.941 315.028 140.13 315.891 140.13C316.361 140.13 316.838 140.047 317.322 139.881C317.822 139.699 318.223 139.494 318.526 139.267C318.753 139.101 318.995 139.017 319.253 139.017C319.525 139.002 319.76 139.078 319.957 139.245C320.214 139.472 320.351 139.722 320.366 139.994C320.381 140.267 320.26 140.501 320.002 140.698C319.488 141.107 318.844 141.44 318.072 141.698C317.315 141.955 316.588 142.084 315.891 142.084ZM328.896 142.084C327.791 142.084 326.799 141.811 325.921 141.266C325.042 140.706 324.346 139.956 323.831 139.017C323.331 138.064 323.081 136.988 323.081 135.792C323.081 134.596 323.354 133.521 323.899 132.567C324.459 131.613 325.209 130.863 326.148 130.318C327.102 129.758 328.169 129.478 329.35 129.478C330.531 129.478 331.591 129.758 332.53 130.318C333.469 130.863 334.211 131.613 334.756 132.567C335.316 133.521 335.596 134.596 335.596 135.792H334.711C334.711 136.988 334.453 138.064 333.938 139.017C333.439 139.956 332.75 140.706 331.872 141.266C330.993 141.811 330.001 142.084 328.896 142.084ZM329.35 140.04C330.123 140.04 330.812 139.858 331.417 139.494C332.023 139.116 332.5 138.609 332.848 137.973C333.196 137.322 333.371 136.595 333.371 135.792C333.371 134.974 333.196 134.248 332.848 133.612C332.5 132.961 332.023 132.453 331.417 132.09C330.812 131.711 330.123 131.522 329.35 131.522C328.593 131.522 327.904 131.711 327.283 132.09C326.678 132.453 326.193 132.961 325.83 133.612C325.481 134.248 325.307 134.974 325.307 135.792C325.307 136.595 325.481 137.322 325.83 137.973C326.193 138.609 326.678 139.116 327.283 139.494C327.904 139.858 328.593 140.04 329.35 140.04ZM334.438 142.016C334.105 142.016 333.825 141.91 333.598 141.698C333.386 141.471 333.28 141.19 333.28 140.857V137.382L333.711 134.974L335.596 135.792V140.857C335.596 141.19 335.483 141.471 335.256 141.698C335.044 141.91 334.771 142.016 334.438 142.016ZM344.677 142.084C343.496 142.084 342.429 141.811 341.475 141.266C340.536 140.706 339.786 139.949 339.226 138.995C338.681 138.041 338.409 136.966 338.409 135.769C338.409 134.573 338.658 133.506 339.158 132.567C339.673 131.613 340.369 130.863 341.248 130.318C342.126 129.758 343.118 129.478 344.223 129.478C345.117 129.478 345.942 129.667 346.699 130.046C347.456 130.409 348.092 130.909 348.607 131.545V125.412C348.607 125.064 348.713 124.784 348.925 124.572C349.152 124.36 349.432 124.254 349.765 124.254C350.113 124.254 350.394 124.36 350.606 124.572C350.818 124.784 350.924 125.064 350.924 125.412V135.769C350.924 136.966 350.643 138.041 350.083 138.995C349.538 139.949 348.796 140.706 347.857 141.266C346.918 141.811 345.858 142.084 344.677 142.084ZM344.677 140.04C345.45 140.04 346.139 139.858 346.744 139.494C347.35 139.116 347.827 138.601 348.175 137.95C348.524 137.299 348.698 136.572 348.698 135.769C348.698 134.952 348.524 134.225 348.175 133.589C347.827 132.953 347.35 132.453 346.744 132.09C346.139 131.711 345.45 131.522 344.677 131.522C343.92 131.522 343.231 131.711 342.61 132.09C342.005 132.453 341.52 132.953 341.157 133.589C340.809 134.225 340.634 134.952 340.634 135.769C340.634 136.572 340.809 137.299 341.157 137.95C341.52 138.601 342.005 139.116 342.61 139.494C343.231 139.858 343.92 140.04 344.677 140.04Z" fill="#363636"/>
</svg>
