<svg width="103" height="36" viewBox="0 0 103 36" fill="none" xmlns="http://www.w3.org/2000/svg">
<g clip-path="url(#clip0_174_4)">
<path d="M83.3482 7.31093C84.8169 7.09463 86.2781 6.83805 87.743 6.60678C90.6832 6.16174 93.5871 5.6005 96.5095 5.08483C96.3967 5.94482 96.2917 6.8377 96.7434 7.52761C96.7434 7.52761 97.195 7.42326 97.75 7.24979C98.3076 7.08456 98.9789 6.8867 99.4247 6.75662C103.276 7.66594 102.857 10.6522 101.272 13.1672C100.854 13.7062 100.384 14.3132 99.8473 14.9402C99.3773 14.992 98.9094 15.0466 98.4437 15.0985C96.3298 15.3536 94.248 15.6543 92.1518 16.0405C90.0645 16.3688 87.9731 16.7477 85.8515 17.1492C81.6194 17.8984 80.3755 18.4314 75.7865 18.9054C69.3414 19.3628 82.162 17.7717 75.7865 18.9054C83.3716 17.9283 71.0553 19.9417 78.7667 18.7784C80.6969 18.4976 79.5246 18.4925 81.4434 18.2142C83.3658 17.9636 85.2791 17.715 87.1834 17.4683C89.0944 17.2197 90.9894 17.0429 92.8874 16.8402C94.7906 16.62 96.6735 16.4677 98.5629 16.3206C97.1836 17.6521 95.4948 18.8266 93.4137 19.3543C88.4367 20.165 83.5296 20.9671 78.6636 21.7585C78.6267 21.358 74.862 22.4311 71.5199 22.9711C68.1765 23.4833 64.8486 23.0344 61.528 23.4181C54.8861 24.208 41.7341 27.7032 41.652 27.9781C41.6178 27.9856 41.5863 27.9906 41.5545 27.9955C41.5863 27.9906 41.6178 27.9856 41.652 27.9781C41.5778 28.22 41.6459 28.3867 42.4974 28.2423C41.6461 28.3867 41.5771 28.2192 41.652 27.9781C55.0825 25.3146 64.5813 23.7741 78.1117 21.8546C67.627 23.5803 60.4836 25.1505 50.1776 27.0374C39.874 28.9167 29.5114 30.8136 18.8139 32.5076C17.9038 32.6518 16.0791 32.9405 15.1666 33.0847C11.4356 32.4582 7.75758 32.6241 4.11863 33.1837C4.89317 31.046 0.979662 27.616 8.32191 27.2894C8.29603 26.8906 8.24228 26.0907 8.21432 25.6922C4.49637 25.26 1.89208 23.7403 1.01802 22.0153C0.615344 21.1542 0.627443 20.2206 1.26743 19.334C1.93063 18.4398 3.06409 17.6099 4.8628 16.9301C12.9428 14.072 23.9625 13.9504 33.8976 11.5025C41.1382 9.90659 48.3676 8.27267 55.6802 7.78705C65.7508 7.21951 73.4845 5.08452 83.5267 4.5519C85.3437 4.35661 87.7867 3.59519 90.0192 2.99452C92.2391 2.36726 94.221 1.84485 95.1817 2.22148C96.5261 2.46916 96.6836 3.29709 96.6022 4.28338C93.6561 4.948 90.7285 5.66808 87.7697 6.24921C86.2955 6.55127 84.8274 6.87337 83.3544 7.14762C81.8792 7.41688 80.4078 7.68523 78.9403 7.95268" fill="#060074" fill-opacity="0.33"/>
<path d="M16.8564 18.0552C16.6048 18.0552 16.3932 17.9694 16.2217 17.7979C16.0502 17.6263 15.9644 17.4148 15.9644 17.1632V5.55021C15.9644 5.28719 16.0502 5.07563 16.2217 4.91553C16.3932 4.74399 16.6048 4.65822 16.8564 4.65822H20.9561C21.7337 4.65822 22.4141 4.81261 22.9974 5.12137C23.592 5.4187 24.0552 5.8361 24.3868 6.37358C24.7299 6.91106 24.9014 7.52859 24.9014 8.22617C24.9014 8.78652 24.747 9.29541 24.4383 9.75284C24.1409 10.1988 23.7292 10.5533 23.2032 10.8164C23.958 10.9993 24.564 11.3596 25.0215 11.897C25.4789 12.4345 25.7076 13.1378 25.7076 14.0069C25.7076 14.796 25.5189 15.4936 25.1416 16.0997C24.7756 16.7058 24.261 17.1861 23.5977 17.5406C22.9345 17.8836 22.174 18.0552 21.3163 18.0552H16.8564ZM17.7484 16.4084H21.3163C21.8423 16.4084 22.3055 16.3169 22.7057 16.134C23.106 15.951 23.4205 15.6823 23.6492 15.3278C23.8779 14.9732 23.9923 14.533 23.9923 14.0069C23.9923 13.5152 23.8779 13.1092 23.6492 12.789C23.4205 12.4688 23.106 12.2287 22.7057 12.0686C22.3055 11.897 21.8423 11.8113 21.3163 11.8113H17.7484V16.4084ZM17.7484 10.1645H20.9561C21.6079 10.1645 22.1397 10.0044 22.5514 9.68422C22.9745 9.36402 23.186 8.87801 23.186 8.22617C23.186 7.57433 22.9745 7.09403 22.5514 6.78527C22.1397 6.46507 21.6079 6.30497 20.9561 6.30497H17.7484V10.1645ZM30.419 18.0552C29.9158 18.0552 29.4698 17.9179 29.081 17.6435C28.6922 17.369 28.3891 16.9974 28.1718 16.5285C27.9546 16.0482 27.8459 15.4993 27.8459 14.8818V5.5159C27.8459 5.26432 27.926 5.05847 28.0861 4.89837C28.2462 4.73827 28.452 4.65822 28.7036 4.65822C28.9552 4.65822 29.161 4.73827 29.3211 4.89837C29.4812 5.05847 29.5613 5.26432 29.5613 5.5159V14.8818C29.5613 15.3049 29.6413 15.6537 29.8014 15.9281C29.9615 16.2026 30.1674 16.3398 30.419 16.3398H30.8478C31.0765 16.3398 31.2595 16.4199 31.3967 16.58C31.5454 16.7401 31.6197 16.9459 31.6197 17.1975C31.6197 17.4491 31.5111 17.6549 31.2938 17.815C31.0765 17.9751 30.7963 18.0552 30.4533 18.0552H30.419ZM37.0665 18.1238C36.1402 18.1238 35.3226 17.9237 34.6135 17.5234C33.9045 17.1117 33.3442 16.5514 32.9325 15.8424C32.5322 15.1219 32.3321 14.2985 32.3321 13.3722C32.3321 12.4345 32.5322 11.6111 32.9325 10.9021C33.3442 10.1817 33.9045 9.62133 34.6135 9.22108C35.3226 8.80939 36.1402 8.60355 37.0665 8.60355C37.9814 8.60355 38.7933 8.80939 39.5023 9.22108C40.2113 9.62133 40.766 10.1817 41.1662 10.9021C41.5779 11.6111 41.7837 12.4345 41.7837 13.3722C41.7837 14.2985 41.5836 15.1219 41.1834 15.8424C40.7831 16.5514 40.2285 17.1117 39.5195 17.5234C38.8105 17.9237 37.9928 18.1238 37.0665 18.1238ZM37.0665 16.58C37.6612 16.58 38.1872 16.4427 38.6446 16.1683C39.1021 15.8938 39.4566 15.5164 39.7082 15.0361C39.9712 14.5558 40.1027 14.0012 40.1027 13.3722C40.1027 12.7433 39.9712 12.1886 39.7082 11.7083C39.4566 11.2166 39.1021 10.8335 38.6446 10.5591C38.1872 10.2846 37.6612 10.1474 37.0665 10.1474C36.4719 10.1474 35.9458 10.2846 35.4884 10.5591C35.031 10.8335 34.6707 11.2166 34.4077 11.7083C34.1447 12.1886 34.0132 12.7433 34.0132 13.3722C34.0132 14.0012 34.1447 14.5558 34.4077 15.0361C34.6707 15.5164 35.031 15.8938 35.4884 16.1683C35.9458 16.4427 36.4719 16.58 37.0665 16.58ZM48.2988 18.1238C47.4411 18.1238 46.6806 17.9237 46.0173 17.5234C45.3655 17.1117 44.8509 16.5514 44.4735 15.8424C44.0961 15.1219 43.9074 14.2985 43.9074 13.3722C43.9074 12.4345 44.1076 11.6111 44.5078 10.9021C44.9195 10.1817 45.4799 9.62133 46.1889 9.22108C46.8979 8.80939 47.7155 8.60355 48.6418 8.60355C49.5567 8.60355 50.3686 8.80939 51.0776 9.22108C51.7867 9.62133 52.3413 10.1817 52.7415 10.9021C53.1532 11.6111 53.3591 12.4345 53.3591 13.3722H52.347C52.347 14.2985 52.1698 15.1219 51.8152 15.8424C51.4722 16.5514 50.9976 17.1117 50.3915 17.5234C49.7854 17.9237 49.0878 18.1238 48.2988 18.1238ZM48.6075 21.949C47.7956 21.949 47.0351 21.7889 46.3261 21.4687C45.6171 21.1485 45.0167 20.6797 44.525 20.0621C44.3763 19.8677 44.3191 19.6676 44.3534 19.4618C44.3992 19.2559 44.5135 19.0901 44.6965 18.9643C44.9024 18.8271 45.1139 18.7813 45.3312 18.8271C45.5599 18.8728 45.7429 18.9872 45.8801 19.1702C46.1889 19.559 46.5777 19.862 47.0465 20.0793C47.5154 20.2966 48.0472 20.4052 48.6418 20.4052C49.1907 20.4052 49.6939 20.2737 50.1513 20.0107C50.6202 19.7477 50.9919 19.3588 51.2663 18.8442C51.5408 18.3296 51.678 17.7007 51.678 16.9573V14.5215L52.2441 13.012L53.3591 13.3722V17.0774C53.3591 17.9808 53.1589 18.7985 52.7587 19.5304C52.3584 20.2737 51.7981 20.8626 51.0776 21.2972C50.3686 21.7318 49.5453 21.949 48.6075 21.949ZM48.6418 16.58C49.2365 16.58 49.7625 16.4427 50.22 16.1683C50.6774 15.8938 51.0319 15.5164 51.2835 15.0361C51.5465 14.5558 51.678 14.0012 51.678 13.3722C51.678 12.7433 51.5465 12.1886 51.2835 11.7083C51.0319 11.2166 50.6774 10.8335 50.22 10.5591C49.7625 10.2846 49.2365 10.1474 48.6418 10.1474C48.0472 10.1474 47.5211 10.2846 47.0637 10.5591C46.6063 10.8335 46.246 11.2166 45.983 11.7083C45.72 12.1886 45.5885 12.7433 45.5885 13.3722C45.5885 14.0012 45.72 14.5558 45.983 15.0361C46.246 15.5164 46.6063 15.8938 47.0637 16.1683C47.5211 16.4427 48.0472 16.58 48.6418 16.58ZM59.8741 18.1238C59.0164 18.1238 58.2559 17.9237 57.5927 17.5234C56.9408 17.1117 56.4262 16.5514 56.0488 15.8424C55.6715 15.1219 55.4828 14.2985 55.4828 13.3722C55.4828 12.4345 55.6829 11.6111 56.0831 10.9021C56.4948 10.1817 57.0552 9.62133 57.7642 9.22108C58.4732 8.80939 59.2909 8.60355 60.2172 8.60355C61.132 8.60355 61.9439 8.80939 62.653 9.22108C63.362 9.62133 63.9166 10.1817 64.3169 10.9021C64.7285 11.6111 64.9344 12.4345 64.9344 13.3722H63.9223C63.9223 14.2985 63.7451 15.1219 63.3906 15.8424C63.0475 16.5514 62.5729 17.1117 61.9668 17.5234C61.3607 17.9237 60.6631 18.1238 59.8741 18.1238ZM60.1828 21.949C59.3709 21.949 58.6104 21.7889 57.9014 21.4687C57.1924 21.1485 56.592 20.6797 56.1003 20.0621C55.9516 19.8677 55.8944 19.6676 55.9288 19.4618C55.9745 19.2559 56.0889 19.0901 56.2718 18.9643C56.4777 18.8271 56.6892 18.7813 56.9065 18.8271C57.1352 18.8728 57.3182 18.9872 57.4554 19.1702C57.7642 19.559 58.153 19.862 58.6219 20.0793C59.0907 20.2966 59.6225 20.4052 60.2172 20.4052C60.7661 20.4052 61.2692 20.2737 61.7267 20.0107C62.1955 19.7477 62.5672 19.3588 62.8417 18.8442C63.1161 18.3296 63.2533 17.7007 63.2533 16.9573V14.5215L63.8194 13.012L64.9344 13.3722V17.0774C64.9344 17.9808 64.7343 18.7985 64.334 19.5304C63.9338 20.2737 63.3734 20.8626 62.653 21.2972C61.9439 21.7318 61.1206 21.949 60.1828 21.949ZM60.2172 16.58C60.8118 16.58 61.3379 16.4427 61.7953 16.1683C62.2527 15.8938 62.6072 15.5164 62.8588 15.0361C63.1218 14.5558 63.2533 14.0012 63.2533 13.3722C63.2533 12.7433 63.1218 12.1886 62.8588 11.7083C62.6072 11.2166 62.2527 10.8335 61.7953 10.5591C61.3379 10.2846 60.8118 10.1474 60.2172 10.1474C59.6225 10.1474 59.0965 10.2846 58.639 10.5591C58.1816 10.8335 57.8214 11.2166 57.5583 11.7083C57.2953 12.1886 57.1638 12.7433 57.1638 13.3722C57.1638 14.0012 57.2953 14.5558 57.5583 15.0361C57.8214 15.5164 58.1816 15.8938 58.639 16.1683C59.0965 16.4427 59.6225 16.58 60.2172 16.58ZM71.9469 18.1238C70.9977 18.1238 70.1514 17.9237 69.4081 17.5234C68.6762 17.1117 68.0987 16.5514 67.6756 15.8424C67.2639 15.1219 67.0581 14.2985 67.0581 13.3722C67.0581 12.4345 67.2525 11.6111 67.6413 10.9021C68.0416 10.1817 68.5905 9.62133 69.288 9.22108C69.9856 8.80939 70.7861 8.60355 71.6896 8.60355C72.5815 8.60355 73.3477 8.80367 73.9881 9.20392C74.6285 9.59274 75.1146 10.1359 75.4462 10.8335C75.7893 11.5197 75.9608 12.3144 75.9608 13.2179C75.9608 13.4351 75.8865 13.6181 75.7378 13.7668C75.5891 13.904 75.4004 13.9726 75.1717 13.9726H68.2588V12.6003H75.1203L74.417 13.0806C74.4055 12.5088 74.2912 12 74.0739 11.554C73.8566 11.0965 73.5479 10.7363 73.1476 10.4733C72.7474 10.2103 72.2613 10.0788 71.6896 10.0788C71.0377 10.0788 70.4774 10.2217 70.0085 10.5076C69.5511 10.7935 69.2023 11.188 68.9621 11.6912C68.722 12.1829 68.6019 12.7433 68.6019 13.3722C68.6019 14.0012 68.7449 14.5616 69.0307 15.0533C69.3166 15.545 69.7112 15.9338 70.2143 16.2197C70.7175 16.5056 71.295 16.6486 71.9469 16.6486C72.3014 16.6486 72.6616 16.5857 73.0275 16.4599C73.4049 16.3227 73.708 16.1683 73.9367 15.9967C74.1082 15.871 74.2912 15.8081 74.4856 15.8081C74.6914 15.7966 74.8687 15.8538 75.0173 15.9796C75.2118 16.1511 75.3147 16.3398 75.3261 16.5457C75.3375 16.7515 75.2461 16.9288 75.0517 17.0774C74.6628 17.3862 74.1768 17.6378 73.5936 17.8322C73.0218 18.0266 72.4729 18.1238 71.9469 18.1238ZM86.1173 18.0723C85.8657 18.0723 85.6542 17.9923 85.4826 17.8322C85.3225 17.6606 85.2425 17.4491 85.2425 17.1975V12.9777C85.2425 12.3259 85.1224 11.7941 84.8823 11.3824C84.6421 10.9707 84.3162 10.6677 83.9045 10.4733C83.5043 10.2674 83.0411 10.1645 82.5151 10.1645C82.0348 10.1645 81.6002 10.2617 81.2114 10.4561C80.8226 10.6505 80.5138 10.9136 80.2851 11.2452C80.0564 11.5654 79.942 11.9371 79.942 12.3602H78.8614C78.8614 11.6397 79.0329 10.9993 79.376 10.439C79.7305 9.8672 80.2108 9.41549 80.8169 9.08385C81.423 8.75221 82.1034 8.58639 82.8581 8.58639C83.6472 8.58639 84.3505 8.75793 84.968 9.101C85.597 9.43264 86.0887 9.92437 86.4432 10.5762C86.8092 11.228 86.9922 12.0285 86.9922 12.9777V17.1975C86.9922 17.4491 86.9064 17.6606 86.7349 17.8322C86.5748 17.9923 86.3689 18.0723 86.1173 18.0723ZM79.0672 18.0723C78.8156 18.0723 78.6041 17.9923 78.4325 17.8322C78.2724 17.6606 78.1924 17.4491 78.1924 17.1975V9.547C78.1924 9.28397 78.2724 9.07241 78.4325 8.91231C78.6041 8.75221 78.8156 8.67216 79.0672 8.67216C79.3302 8.67216 79.5418 8.75221 79.7019 8.91231C79.862 9.07241 79.942 9.28397 79.942 9.547V17.1975C79.942 17.4491 79.862 17.6606 79.7019 17.8322C79.5418 17.9923 79.3302 18.0723 79.0672 18.0723Z" fill="#110476"/>
<path d="M17.0484 26.2354C16.9987 26.2354 16.9544 26.2201 16.9157 26.1897C16.877 26.1593 16.8494 26.1179 16.8328 26.0653L15.9992 23.2951C15.9716 23.2039 15.973 23.132 16.0034 23.0795C16.0365 23.0242 16.0891 22.9965 16.161 22.9965C16.208 22.9965 16.2508 23.0104 16.2895 23.038C16.3282 23.0629 16.3559 23.103 16.3725 23.1583L17.0982 25.6879H17.007L17.6788 23.1831C17.6898 23.1417 17.7147 23.1071 17.7534 23.0795C17.7921 23.0518 17.8364 23.038 17.8861 23.038C17.9304 23.038 17.9718 23.0504 18.0105 23.0753C18.052 23.0974 18.0783 23.132 18.0893 23.179L18.7653 25.6879H18.6823L19.4122 23.1375C19.4399 23.0435 19.5104 22.9965 19.6237 22.9965C19.7011 22.9965 19.7509 23.0269 19.773 23.0878C19.7951 23.1458 19.7951 23.2149 19.773 23.2951L18.9395 26.0612C18.9201 26.1137 18.8911 26.1566 18.8524 26.1897C18.8164 26.2201 18.7736 26.2354 18.7238 26.2354C18.6713 26.2354 18.6257 26.2188 18.587 26.1856C18.551 26.1524 18.5248 26.1123 18.5082 26.0653L17.8405 23.4859H17.94L17.2641 26.0612C17.2447 26.1137 17.2157 26.1566 17.177 26.1897C17.141 26.2201 17.0982 26.2354 17.0484 26.2354ZM20.122 24.8171C20.122 24.6512 20.1621 24.5033 20.2423 24.3733C20.3252 24.2406 20.4358 24.1356 20.5741 24.0582C20.7123 23.9808 20.8644 23.942 21.0302 23.942C21.1961 23.942 21.3192 23.9697 21.3993 24.025C21.4823 24.0775 21.5141 24.1411 21.4947 24.2158C21.4864 24.2545 21.4698 24.2849 21.4449 24.307C21.4228 24.3263 21.3966 24.3388 21.3661 24.3443C21.3357 24.3498 21.3026 24.3485 21.2666 24.3402C21.0897 24.3042 20.9307 24.3015 20.7897 24.3319C20.6487 24.3623 20.5367 24.419 20.4538 24.5019C20.3736 24.5848 20.3335 24.6899 20.3335 24.8171H20.122ZM20.1262 26.2354C20.0598 26.2354 20.0087 26.2188 19.9728 26.1856C19.9368 26.1496 19.9188 26.0971 19.9188 26.028V24.1743C19.9188 24.1079 19.9368 24.0568 19.9728 24.0208C20.0087 23.9849 20.0598 23.9669 20.1262 23.9669C20.1953 23.9669 20.2465 23.9849 20.2796 24.0208C20.3156 24.054 20.3335 24.1052 20.3335 24.1743V26.028C20.3335 26.0944 20.3156 26.1455 20.2796 26.1814C20.2465 26.2174 20.1953 26.2354 20.1262 26.2354ZM22.1886 26.2354C22.1278 26.2354 22.0767 26.216 22.0352 26.1773C21.9965 26.1358 21.9771 26.0847 21.9771 26.0239V24.1784C21.9771 24.1148 21.9965 24.0637 22.0352 24.025C22.0767 23.9863 22.1278 23.9669 22.1886 23.9669C22.2522 23.9669 22.3034 23.9863 22.3421 24.025C22.3808 24.0637 22.4001 24.1148 22.4001 24.1784V26.0239C22.4001 26.0847 22.3808 26.1358 22.3421 26.1773C22.3034 26.216 22.2522 26.2354 22.1886 26.2354ZM22.1886 23.5978C22.114 23.5978 22.049 23.5716 21.9937 23.5191C21.9412 23.4638 21.9149 23.3988 21.9149 23.3241C21.9149 23.2495 21.9412 23.1859 21.9937 23.1334C22.049 23.0781 22.114 23.0504 22.1886 23.0504C22.2633 23.0504 22.3269 23.0781 22.3794 23.1334C22.4347 23.1859 22.4623 23.2495 22.4623 23.3241C22.4623 23.3988 22.4347 23.4638 22.3794 23.5191C22.3269 23.5716 22.2633 23.5978 22.1886 23.5978ZM24.0123 26.2354C23.8741 26.2354 23.7497 26.2008 23.6391 26.1317C23.5285 26.0598 23.4414 25.963 23.3778 25.8414C23.3142 25.7197 23.2824 25.5829 23.2824 25.4308V23.4527C23.2824 23.3919 23.3018 23.3421 23.3405 23.3034C23.3792 23.2647 23.429 23.2453 23.4898 23.2453C23.5506 23.2453 23.6004 23.2647 23.6391 23.3034C23.6778 23.3421 23.6971 23.3919 23.6971 23.4527V25.4308C23.6971 25.5414 23.7275 25.634 23.7884 25.7087C23.8492 25.7833 23.9238 25.8206 24.0123 25.8206H24.1533C24.2031 25.8206 24.2445 25.84 24.2777 25.8787C24.3137 25.9174 24.3316 25.9672 24.3316 26.028C24.3316 26.0888 24.3081 26.1386 24.2611 26.1773C24.2169 26.216 24.1588 26.2354 24.087 26.2354H24.0123ZM23.0917 24.4065C23.0336 24.4065 22.9866 24.3899 22.9507 24.3568C22.9147 24.3236 22.8968 24.2821 22.8968 24.2323C22.8968 24.177 22.9147 24.1328 22.9507 24.0996C22.9866 24.0665 23.0336 24.0499 23.0917 24.0499H24.0496C24.1077 24.0499 24.1547 24.0665 24.1906 24.0996C24.2266 24.1328 24.2445 24.177 24.2445 24.2323C24.2445 24.2821 24.2266 24.3236 24.1906 24.3568C24.1547 24.3899 24.1077 24.4065 24.0496 24.4065H23.0917ZM25.9173 26.2519C25.6878 26.2519 25.4833 26.2036 25.3036 26.1068C25.1266 26.0073 24.987 25.8718 24.8847 25.7004C24.7852 25.5262 24.7354 25.3272 24.7354 25.1032C24.7354 24.8765 24.7824 24.6775 24.8764 24.506C24.9732 24.3319 25.1059 24.1964 25.2745 24.0996C25.4432 24.0001 25.6367 23.9503 25.8551 23.9503C26.0708 23.9503 26.256 23.9987 26.4108 24.0955C26.5656 24.1895 26.6831 24.3208 26.7633 24.4895C26.8462 24.6553 26.8877 24.8475 26.8877 25.0659C26.8877 25.1184 26.8697 25.1627 26.8338 25.1986C26.7979 25.2318 26.7522 25.2484 26.697 25.2484H25.0257V24.9166H26.6845L26.5145 25.0327C26.5117 24.8945 26.4841 24.7715 26.4315 24.6636C26.379 24.553 26.3044 24.466 26.2076 24.4024C26.1108 24.3388 25.9933 24.307 25.8551 24.307C25.6975 24.307 25.562 24.3415 25.4487 24.4107C25.3381 24.4798 25.2538 24.5752 25.1957 24.6968C25.1377 24.8157 25.1086 24.9512 25.1086 25.1032C25.1086 25.2553 25.1432 25.3907 25.2123 25.5096C25.2814 25.6285 25.3768 25.7225 25.4985 25.7916C25.6201 25.8607 25.7597 25.8953 25.9173 25.8953C26.003 25.8953 26.0901 25.8801 26.1786 25.8497C26.2698 25.8165 26.3431 25.7792 26.3984 25.7377C26.4398 25.7073 26.4841 25.6921 26.5311 25.6921C26.5808 25.6893 26.6237 25.7032 26.6596 25.7336C26.7066 25.775 26.7315 25.8206 26.7343 25.8704C26.737 25.9202 26.7149 25.963 26.6679 25.999C26.5739 26.0736 26.4564 26.1344 26.3154 26.1814C26.1772 26.2284 26.0445 26.2519 25.9173 26.2519ZM29.372 26.2354C29.3223 26.2354 29.278 26.2201 29.2393 26.1897C29.2006 26.1593 29.173 26.1179 29.1564 26.0653L28.3228 23.2951C28.2952 23.2039 28.2966 23.132 28.327 23.0795C28.3602 23.0242 28.4127 22.9965 28.4846 22.9965C28.5316 22.9965 28.5744 23.0104 28.6131 23.038C28.6518 23.0629 28.6795 23.103 28.6961 23.1583L29.4218 25.6879H29.3306L30.0024 23.1831C30.0134 23.1417 30.0383 23.1071 30.077 23.0795C30.1157 23.0518 30.16 23.038 30.2097 23.038C30.254 23.038 30.2954 23.0504 30.3341 23.0753C30.3756 23.0974 30.4019 23.132 30.4129 23.179L31.0889 25.6879H31.006L31.7358 23.1375C31.7635 23.0435 31.834 22.9965 31.9473 22.9965C32.0248 22.9965 32.0745 23.0269 32.0966 23.0878C32.1187 23.1458 32.1187 23.2149 32.0966 23.2951L31.2631 26.0612C31.2437 26.1137 31.2147 26.1566 31.176 26.1897C31.1401 26.2201 31.0972 26.2354 31.0474 26.2354C30.9949 26.2354 30.9493 26.2188 30.9106 26.1856C30.8746 26.1524 30.8484 26.1123 30.8318 26.0653L30.1641 23.4859H30.2636L29.5877 26.0612C29.5683 26.1137 29.5393 26.1566 29.5006 26.1897C29.4647 26.2201 29.4218 26.2354 29.372 26.2354ZM33.1049 26.2519C32.8809 26.2519 32.6833 26.2036 32.5119 26.1068C32.3404 26.0073 32.205 25.8718 32.1054 25.7004C32.0087 25.5262 31.9603 25.3272 31.9603 25.1032C31.9603 24.8765 32.0087 24.6775 32.1054 24.506C32.205 24.3319 32.3404 24.1964 32.5119 24.0996C32.6833 24.0001 32.8809 23.9503 33.1049 23.9503C33.3261 23.9503 33.5223 24.0001 33.6938 24.0996C33.8652 24.1964 33.9993 24.3319 34.096 24.506C34.1955 24.6775 34.2453 24.8765 34.2453 25.1032C34.2453 25.3272 34.1969 25.5262 34.1002 25.7004C34.0034 25.8718 33.8693 26.0073 33.6979 26.1068C33.5265 26.2036 33.3288 26.2519 33.1049 26.2519ZM33.1049 25.8787C33.2486 25.8787 33.3758 25.8455 33.4864 25.7792C33.597 25.7128 33.6827 25.6216 33.7435 25.5055C33.8071 25.3894 33.8389 25.2553 33.8389 25.1032C33.8389 24.9512 33.8071 24.8171 33.7435 24.701C33.6827 24.5821 33.597 24.4895 33.4864 24.4231C33.3758 24.3568 33.2486 24.3236 33.1049 24.3236C32.9611 24.3236 32.8339 24.3568 32.7234 24.4231C32.6128 24.4895 32.5257 24.5821 32.4621 24.701C32.3985 24.8171 32.3667 24.9512 32.3667 25.1032C32.3667 25.2553 32.3985 25.3894 32.4621 25.5055C32.5257 25.6216 32.6128 25.7128 32.7234 25.7792C32.8339 25.8455 32.9611 25.8787 33.1049 25.8787ZM35.078 24.8171C35.078 24.6512 35.1181 24.5033 35.1983 24.3733C35.2813 24.2406 35.3918 24.1356 35.5301 24.0582C35.6683 23.9808 35.8204 23.942 35.9862 23.942C36.1521 23.942 36.2752 23.9697 36.3553 24.025C36.4383 24.0775 36.4701 24.1411 36.4507 24.2158C36.4424 24.2545 36.4258 24.2849 36.4009 24.307C36.3788 24.3263 36.3526 24.3388 36.3222 24.3443C36.2917 24.3498 36.2586 24.3485 36.2226 24.3402C36.0457 24.3042 35.8867 24.3015 35.7457 24.3319C35.6047 24.3623 35.4928 24.419 35.4098 24.5019C35.3296 24.5848 35.2895 24.6899 35.2895 24.8171H35.078ZM35.0822 26.2354C35.0158 26.2354 34.9647 26.2188 34.9288 26.1856C34.8928 26.1496 34.8748 26.0971 34.8748 26.028V24.1743C34.8748 24.1079 34.8928 24.0568 34.9288 24.0208C34.9647 23.9849 35.0158 23.9669 35.0822 23.9669C35.1513 23.9669 35.2025 23.9849 35.2356 24.0208C35.2716 24.054 35.2895 24.1052 35.2895 24.1743V26.028C35.2895 26.0944 35.2716 26.1455 35.2356 26.1814C35.2025 26.2174 35.1513 26.2354 35.0822 26.2354ZM37.7541 26.2519C37.5384 26.2519 37.3435 26.2022 37.1693 26.1026C36.9979 26.0004 36.8611 25.8621 36.7588 25.6879C36.6593 25.5138 36.6095 25.3175 36.6095 25.0991C36.6095 24.8807 36.6551 24.6857 36.7463 24.5143C36.8403 24.3402 36.9675 24.2033 37.1279 24.1038C37.2882 24.0015 37.4693 23.9503 37.6711 23.9503C37.8343 23.9503 37.9849 23.9849 38.1232 24.054C38.2614 24.1204 38.3775 24.2116 38.4715 24.3277V23.208C38.4715 23.1444 38.4909 23.0933 38.5296 23.0546C38.571 23.0159 38.6222 22.9965 38.683 22.9965C38.7466 22.9965 38.7977 23.0159 38.8364 23.0546C38.8752 23.0933 38.8945 23.1444 38.8945 23.208V25.0991C38.8945 25.3175 38.8434 25.5138 38.7411 25.6879C38.6415 25.8621 38.5061 26.0004 38.3347 26.1026C38.1632 26.2022 37.9697 26.2519 37.7541 26.2519ZM37.7541 25.8787C37.8951 25.8787 38.0209 25.8455 38.1315 25.7792C38.242 25.7101 38.3291 25.6161 38.3927 25.4972C38.4563 25.3783 38.4881 25.2456 38.4881 25.0991C38.4881 24.9498 38.4563 24.8171 38.3927 24.701C38.3291 24.5848 38.242 24.4936 38.1315 24.4273C38.0209 24.3581 37.8951 24.3236 37.7541 24.3236C37.6158 24.3236 37.49 24.3581 37.3767 24.4273C37.2661 24.4936 37.1776 24.5848 37.1113 24.701C37.0477 24.8171 37.0159 24.9498 37.0159 25.0991C37.0159 25.2456 37.0477 25.3783 37.1113 25.4972C37.1776 25.6161 37.2661 25.7101 37.3767 25.7792C37.49 25.8455 37.6158 25.8787 37.7541 25.8787ZM40.4667 26.2519C40.2732 26.2519 40.0935 26.2229 39.9276 26.1649C39.7645 26.104 39.6373 26.028 39.5461 25.9368C39.5046 25.8925 39.4867 25.8428 39.4922 25.7875C39.5005 25.7294 39.5281 25.6824 39.5751 25.6465C39.6304 25.6022 39.6843 25.5843 39.7369 25.5926C39.7922 25.5981 39.8392 25.6216 39.8779 25.6631C39.9249 25.7156 39.9995 25.7654 40.1018 25.8124C40.2069 25.8566 40.323 25.8787 40.4502 25.8787C40.6105 25.8787 40.7322 25.8524 40.8151 25.7999C40.9008 25.7474 40.945 25.6797 40.9478 25.5967C40.9506 25.5138 40.9105 25.4419 40.8275 25.3811C40.7474 25.3202 40.5995 25.2705 40.3838 25.2318C40.1046 25.1765 39.9014 25.0935 39.7742 24.983C39.6498 24.8724 39.5876 24.7369 39.5876 24.5765C39.5876 24.4355 39.629 24.3194 39.712 24.2282C39.7949 24.1342 39.9014 24.0651 40.0313 24.0208C40.1612 23.9738 40.2967 23.9503 40.4377 23.9503C40.6202 23.9503 40.7819 23.9794 40.9229 24.0374C41.0639 24.0955 41.1759 24.1757 41.2588 24.278C41.2975 24.3222 41.3155 24.3692 41.3127 24.419C41.31 24.466 41.2865 24.506 41.2422 24.5392C41.198 24.5696 41.1455 24.5793 41.0847 24.5682C41.0238 24.5572 40.9727 24.5323 40.9312 24.4936C40.8621 24.4273 40.7874 24.3816 40.7073 24.3568C40.6271 24.3319 40.5345 24.3194 40.4294 24.3194C40.3078 24.3194 40.2041 24.3402 40.1184 24.3816C40.0355 24.4231 39.994 24.4839 39.994 24.5641C39.994 24.6139 40.0064 24.6595 40.0313 24.701C40.059 24.7397 40.1115 24.7756 40.1889 24.8088C40.2663 24.8392 40.3797 24.8696 40.529 24.9C40.7363 24.9415 40.8994 24.994 41.0183 25.0576C41.1399 25.1212 41.227 25.1958 41.2796 25.2815C41.3321 25.3645 41.3584 25.4612 41.3584 25.5718C41.3584 25.699 41.3238 25.8137 41.2547 25.916C41.1883 26.0183 41.0888 26.0999 40.9561 26.1607C40.8262 26.2215 40.663 26.2519 40.4667 26.2519ZM43.0211 26.2354C42.9436 26.2354 42.8842 26.2022 42.8427 26.1358C42.8013 26.0695 42.7971 25.999 42.8303 25.9243L43.9956 23.1417C44.0371 23.0449 44.1048 22.9965 44.1988 22.9965C44.2983 22.9965 44.3661 23.0449 44.402 23.1417L45.5715 25.9326C45.6019 26.01 45.5964 26.0805 45.5549 26.1441C45.5162 26.2049 45.4567 26.2354 45.3766 26.2354C45.3351 26.2354 45.295 26.2243 45.2563 26.2022C45.2204 26.1773 45.1941 26.1441 45.1775 26.1026L44.149 23.5481H44.2652L43.2201 26.1026C43.2008 26.1469 43.1717 26.1801 43.133 26.2022C43.0971 26.2243 43.0598 26.2354 43.0211 26.2354ZM43.2408 25.5221L43.4067 25.1654H45.0324L45.1982 25.5221H43.2408ZM47.9399 26.2395C47.8791 26.2395 47.828 26.2201 47.7865 26.1814C47.7478 26.14 47.7284 26.0888 47.7284 26.028V25.0078C47.7284 24.8502 47.6994 24.7217 47.6414 24.6222C47.5833 24.5226 47.5045 24.4494 47.405 24.4024C47.3082 24.3526 47.1962 24.3277 47.0691 24.3277C46.9529 24.3277 46.8479 24.3512 46.7539 24.3982C46.6599 24.4452 46.5852 24.5088 46.53 24.589C46.4747 24.6664 46.447 24.7562 46.447 24.8585H46.1857C46.1857 24.6844 46.2272 24.5295 46.3102 24.3941C46.3959 24.2558 46.512 24.1466 46.6585 24.0665C46.805 23.9863 46.9695 23.9462 47.152 23.9462C47.3428 23.9462 47.5128 23.9877 47.6621 24.0706C47.8141 24.1508 47.933 24.2697 48.0187 24.4273C48.1072 24.5848 48.1514 24.7784 48.1514 25.0078V26.028C48.1514 26.0888 48.1307 26.14 48.0892 26.1814C48.0505 26.2201 48.0008 26.2395 47.9399 26.2395ZM46.2355 26.2395C46.1747 26.2395 46.1235 26.2201 46.0821 26.1814C46.0434 26.14 46.024 26.0888 46.024 26.028V24.1784C46.024 24.1148 46.0434 24.0637 46.0821 24.025C46.1235 23.9863 46.1747 23.9669 46.2355 23.9669C46.2991 23.9669 46.3502 23.9863 46.389 24.025C46.4277 24.0637 46.447 24.1148 46.447 24.1784V26.028C46.447 26.0888 46.4277 26.14 46.389 26.1814C46.3502 26.2201 46.2991 26.2395 46.2355 26.2395ZM49.8793 26.2519C49.6636 26.2519 49.4687 26.2022 49.2945 26.1026C49.1231 26.0004 48.9863 25.8621 48.884 25.6879C48.7844 25.5138 48.7347 25.3175 48.7347 25.0991C48.7347 24.8807 48.7803 24.6857 48.8715 24.5143C48.9655 24.3402 49.0927 24.2033 49.2531 24.1038C49.4134 24.0015 49.5945 23.9503 49.7963 23.9503C49.9594 23.9503 50.1101 23.9849 50.2483 24.054C50.3866 24.1204 50.5027 24.2116 50.5967 24.3277V23.208C50.5967 23.1444 50.616 23.0933 50.6547 23.0546C50.6962 23.0159 50.7474 22.9965 50.8082 22.9965C50.8718 22.9965 50.9229 23.0159 50.9616 23.0546C51.0003 23.0933 51.0197 23.1444 51.0197 23.208V25.0991C51.0197 25.3175 50.9685 25.5138 50.8662 25.6879C50.7667 25.8621 50.6312 26.0004 50.4598 26.1026C50.2884 26.2022 50.0949 26.2519 49.8793 26.2519ZM49.8793 25.8787C50.0203 25.8787 50.146 25.8455 50.2566 25.7792C50.3672 25.7101 50.4543 25.6161 50.5179 25.4972C50.5815 25.3783 50.6133 25.2456 50.6133 25.0991C50.6133 24.9498 50.5815 24.8171 50.5179 24.701C50.4543 24.5848 50.3672 24.4936 50.2566 24.4273C50.146 24.3581 50.0203 24.3236 49.8793 24.3236C49.741 24.3236 49.6152 24.3581 49.5019 24.4273C49.3913 24.4936 49.3028 24.5848 49.2365 24.701C49.1729 24.8171 49.1411 24.9498 49.1411 25.0991C49.1411 25.2456 49.1729 25.3783 49.2365 25.4972C49.3028 25.6161 49.3913 25.7101 49.5019 25.7792C49.6152 25.8455 49.741 25.8787 49.8793 25.8787ZM53.2387 26.2354C53.1779 26.2354 53.1268 26.2146 53.0853 26.1731C53.0438 26.1317 53.0231 26.0805 53.0231 26.0197V23.2122C53.0231 23.1486 53.0438 23.0974 53.0853 23.0587C53.1268 23.0173 53.1779 22.9965 53.2387 22.9965H55.1132C55.1768 22.9965 55.2279 23.0159 55.2666 23.0546C55.3053 23.0905 55.3247 23.1389 55.3247 23.1997C55.3247 23.2578 55.3053 23.3048 55.2666 23.3407C55.2279 23.3767 55.1768 23.3946 55.1132 23.3946H53.4544V24.4024H54.6446C54.7082 24.4024 54.7593 24.4217 54.798 24.4604C54.8367 24.4964 54.8561 24.5434 54.8561 24.6014C54.8561 24.6595 54.8367 24.7079 54.798 24.7466C54.7593 24.7825 54.7082 24.8005 54.6446 24.8005H53.4544V25.8372H55.1132C55.1768 25.8372 55.2279 25.8552 55.2666 25.8911C55.3053 25.9271 55.3247 25.9741 55.3247 26.0321C55.3247 26.093 55.3053 26.1427 55.2666 26.1814C55.2279 26.2174 55.1768 26.2354 55.1132 26.2354H53.2387ZM57.8013 26.2395C57.7404 26.2395 57.6893 26.2201 57.6478 26.1814C57.6091 26.14 57.5898 26.0888 57.5898 26.028V25.0078C57.5898 24.8502 57.5607 24.7217 57.5027 24.6222C57.4446 24.5226 57.3658 24.4494 57.2663 24.4024C57.1695 24.3526 57.0576 24.3277 56.9304 24.3277C56.8143 24.3277 56.7092 24.3512 56.6152 24.3982C56.5212 24.4452 56.4466 24.5088 56.3913 24.589C56.336 24.6664 56.3083 24.7562 56.3083 24.8585H56.0471C56.0471 24.6844 56.0885 24.5295 56.1715 24.3941C56.2572 24.2558 56.3733 24.1466 56.5198 24.0665C56.6664 23.9863 56.8309 23.9462 57.0133 23.9462C57.2041 23.9462 57.3741 23.9877 57.5234 24.0706C57.6755 24.1508 57.7944 24.2697 57.8801 24.4273C57.9685 24.5848 58.0128 24.7784 58.0128 25.0078V26.028C58.0128 26.0888 57.992 26.14 57.9506 26.1814C57.9119 26.2201 57.8621 26.2395 57.8013 26.2395ZM56.0968 26.2395C56.036 26.2395 55.9849 26.2201 55.9434 26.1814C55.9047 26.14 55.8853 26.0888 55.8853 26.028V24.1784C55.8853 24.1148 55.9047 24.0637 55.9434 24.025C55.9849 23.9863 56.036 23.9669 56.0968 23.9669C56.1604 23.9669 56.2116 23.9863 56.2503 24.025C56.289 24.0637 56.3083 24.1148 56.3083 24.1784V26.028C56.3083 26.0888 56.289 26.14 56.2503 26.1814C56.2116 26.2201 56.1604 26.2395 56.0968 26.2395ZM59.5374 26.2354C59.3991 26.2354 59.2747 26.2008 59.1641 26.1317C59.0536 26.0598 58.9665 25.963 58.9029 25.8414C58.8393 25.7197 58.8075 25.5829 58.8075 25.4308V23.4527C58.8075 23.3919 58.8269 23.3421 58.8656 23.3034C58.9043 23.2647 58.954 23.2453 59.0149 23.2453C59.0757 23.2453 59.1254 23.2647 59.1641 23.3034C59.2028 23.3421 59.2222 23.3919 59.2222 23.4527V25.4308C59.2222 25.5414 59.2526 25.634 59.3134 25.7087C59.3743 25.7833 59.4489 25.8206 59.5374 25.8206H59.6784C59.7281 25.8206 59.7696 25.84 59.8028 25.8787C59.8387 25.9174 59.8567 25.9672 59.8567 26.028C59.8567 26.0888 59.8332 26.1386 59.7862 26.1773C59.742 26.216 59.6839 26.2354 59.612 26.2354H59.5374ZM58.6167 24.4065C58.5587 24.4065 58.5117 24.3899 58.4757 24.3568C58.4398 24.3236 58.4218 24.2821 58.4218 24.2323C58.4218 24.177 58.4398 24.1328 58.4757 24.0996C58.5117 24.0665 58.5587 24.0499 58.6167 24.0499H59.5747C59.6328 24.0499 59.6798 24.0665 59.7157 24.0996C59.7516 24.1328 59.7696 24.177 59.7696 24.2323C59.7696 24.2821 59.7516 24.3236 59.7157 24.3568C59.6798 24.3899 59.6328 24.4065 59.5747 24.4065H58.6167ZM61.4424 26.2519C61.2129 26.2519 61.0083 26.2036 60.8286 26.1068C60.6517 26.0073 60.5121 25.8718 60.4098 25.7004C60.3102 25.5262 60.2605 25.3272 60.2605 25.1032C60.2605 24.8765 60.3075 24.6775 60.4015 24.506C60.4982 24.3319 60.6309 24.1964 60.7996 24.0996C60.9682 24.0001 61.1618 23.9503 61.3802 23.9503C61.5958 23.9503 61.7811 23.9987 61.9359 24.0955C62.0907 24.1895 62.2082 24.3208 62.2884 24.4895C62.3713 24.6553 62.4128 24.8475 62.4128 25.0659C62.4128 25.1184 62.3948 25.1627 62.3589 25.1986C62.3229 25.2318 62.2773 25.2484 62.222 25.2484H60.5508V24.9166H62.2096L62.0396 25.0327C62.0368 24.8945 62.0091 24.7715 61.9566 24.6636C61.9041 24.553 61.8294 24.466 61.7327 24.4024C61.6359 24.3388 61.5184 24.307 61.3802 24.307C61.2226 24.307 61.0871 24.3415 60.9738 24.4107C60.8632 24.4798 60.7789 24.5752 60.7208 24.6968C60.6627 24.8157 60.6337 24.9512 60.6337 25.1032C60.6337 25.2553 60.6683 25.3907 60.7374 25.5096C60.8065 25.6285 60.9019 25.7225 61.0235 25.7916C61.1452 25.8607 61.2848 25.8953 61.4424 25.8953C61.5281 25.8953 61.6152 25.8801 61.7036 25.8497C61.7949 25.8165 61.8681 25.7792 61.9234 25.7377C61.9649 25.7073 62.0091 25.6921 62.0561 25.6921C62.1059 25.6893 62.1488 25.7032 62.1847 25.7336C62.2317 25.775 62.2566 25.8206 62.2593 25.8704C62.2621 25.9202 62.24 25.963 62.193 25.999C62.099 26.0736 61.9815 26.1344 61.8405 26.1814C61.7023 26.2284 61.5696 26.2519 61.4424 26.2519ZM63.1555 24.8171C63.1555 24.6512 63.1956 24.5033 63.2758 24.3733C63.3587 24.2406 63.4693 24.1356 63.6075 24.0582C63.7457 23.9808 63.8978 23.942 64.0637 23.942C64.2296 23.942 64.3526 23.9697 64.4328 24.025C64.5157 24.0775 64.5475 24.1411 64.5282 24.2158C64.5199 24.2545 64.5033 24.2849 64.4784 24.307C64.4563 24.3263 64.43 24.3388 64.3996 24.3443C64.3692 24.3498 64.336 24.3485 64.3001 24.3402C64.1231 24.3042 63.9642 24.3015 63.8232 24.3319C63.6822 24.3623 63.5702 24.419 63.4872 24.5019C63.4071 24.5848 63.367 24.6899 63.367 24.8171H63.1555ZM63.1596 26.2354C63.0933 26.2354 63.0421 26.2188 63.0062 26.1856C62.9703 26.1496 62.9523 26.0971 62.9523 26.028V24.1743C62.9523 24.1079 62.9703 24.0568 63.0062 24.0208C63.0421 23.9849 63.0933 23.9669 63.1596 23.9669C63.2288 23.9669 63.2799 23.9849 63.3131 24.0208C63.349 24.054 63.367 24.1052 63.367 24.1743V26.028C63.367 26.0944 63.349 26.1455 63.3131 26.1814C63.2799 26.2174 63.2288 26.2354 63.1596 26.2354ZM67.1835 26.2354C67.1227 26.2354 67.0715 26.2146 67.03 26.1731C66.9886 26.1317 66.9678 26.0805 66.9678 26.0197V22.9965H67.3991V26.0197C67.3991 26.0805 67.3784 26.1317 67.3369 26.1731C67.2954 26.2146 67.2443 26.2354 67.1835 26.2354ZM66.0721 23.3946C66.014 23.3946 65.9656 23.3767 65.9269 23.3407C65.891 23.302 65.873 23.2536 65.873 23.1956C65.873 23.1375 65.891 23.0905 65.9269 23.0546C65.9656 23.0159 66.014 22.9965 66.0721 22.9965H68.2907C68.3488 22.9965 68.3958 23.0159 68.4317 23.0546C68.4704 23.0905 68.4898 23.1375 68.4898 23.1956C68.4898 23.2536 68.4704 23.302 68.4317 23.3407C68.3958 23.3767 68.3488 23.3946 68.2907 23.3946H66.0721ZM69.1373 25.4101C69.0765 25.4101 69.0253 25.3907 68.9838 25.352C68.9451 25.3106 68.9258 25.2594 68.9258 25.1986V23.208C68.9258 23.1444 68.9451 23.0933 68.9838 23.0546C69.0253 23.0159 69.0765 22.9965 69.1373 22.9965C69.2009 22.9965 69.252 23.0159 69.2907 23.0546C69.3294 23.0933 69.3488 23.1444 69.3488 23.208V25.1986C69.3488 25.2594 69.3294 25.3106 69.2907 25.352C69.252 25.3907 69.2009 25.4101 69.1373 25.4101ZM70.8417 26.2395C70.7809 26.2395 70.7297 26.2201 70.6883 26.1814C70.6496 26.14 70.6302 26.0888 70.6302 26.028V25.0078C70.6302 24.8502 70.6012 24.7217 70.5431 24.6222C70.4851 24.5226 70.4063 24.4494 70.3067 24.4024C70.21 24.3526 70.098 24.3277 69.9708 24.3277C69.8547 24.3277 69.7497 24.3512 69.6557 24.3982C69.5617 24.4452 69.487 24.5088 69.4317 24.589C69.3764 24.6664 69.3488 24.7562 69.3488 24.8585H69.0875C69.0875 24.6844 69.129 24.5295 69.2119 24.3941C69.2976 24.2558 69.4137 24.1466 69.5603 24.0665C69.7068 23.9863 69.8713 23.9462 70.0538 23.9462C70.2445 23.9462 70.4146 23.9877 70.5639 24.0706C70.7159 24.1508 70.8348 24.2697 70.9205 24.4273C71.009 24.5848 71.0532 24.7784 71.0532 25.0078V26.028C71.0532 26.0888 71.0325 26.14 70.991 26.1814C70.9523 26.2201 70.9025 26.2395 70.8417 26.2395ZM69.1373 26.2395C69.0765 26.2395 69.0253 26.2201 68.9838 26.1814C68.9451 26.14 68.9258 26.0888 68.9258 26.028V24.1784C68.9258 24.1148 68.9451 24.0637 68.9838 24.025C69.0253 23.9863 69.0765 23.9669 69.1373 23.9669C69.2009 23.9669 69.252 23.9863 69.2907 24.025C69.3294 24.0637 69.3488 24.1148 69.3488 24.1784V26.028C69.3488 26.0888 69.3294 26.14 69.2907 26.1814C69.252 26.2201 69.2009 26.2395 69.1373 26.2395ZM72.8224 26.2519C72.5929 26.2519 72.3883 26.2036 72.2086 26.1068C72.0317 26.0073 71.8921 25.8718 71.7898 25.7004C71.6903 25.5262 71.6405 25.3272 71.6405 25.1032C71.6405 24.8765 71.6875 24.6775 71.7815 24.506C71.8783 24.3319 72.011 24.1964 72.1796 24.0996C72.3482 24.0001 72.5418 23.9503 72.7602 23.9503C72.9758 23.9503 73.1611 23.9987 73.3159 24.0955C73.4707 24.1895 73.5882 24.3208 73.6684 24.4895C73.7513 24.6553 73.7928 24.8475 73.7928 25.0659C73.7928 25.1184 73.7748 25.1627 73.7389 25.1986C73.7029 25.2318 73.6573 25.2484 73.602 25.2484H71.9308V24.9166H73.5896L73.4196 25.0327C73.4168 24.8945 73.3891 24.7715 73.3366 24.6636C73.2841 24.553 73.2094 24.466 73.1127 24.4024C73.0159 24.3388 72.8984 24.307 72.7602 24.307C72.6026 24.307 72.4671 24.3415 72.3538 24.4107C72.2432 24.4798 72.1589 24.5752 72.1008 24.6968C72.0427 24.8157 72.0137 24.9512 72.0137 25.1032C72.0137 25.2553 72.0483 25.3907 72.1174 25.5096C72.1865 25.6285 72.2819 25.7225 72.4035 25.7916C72.5252 25.8607 72.6648 25.8953 72.8224 25.8953C72.9081 25.8953 72.9952 25.8801 73.0837 25.8497C73.1749 25.8165 73.2482 25.7792 73.3034 25.7377C73.3449 25.7073 73.3891 25.6921 73.4361 25.6921C73.4859 25.6893 73.5288 25.7032 73.5647 25.7336C73.6117 25.775 73.6366 25.8206 73.6394 25.8704C73.6421 25.9202 73.62 25.963 73.573 25.999C73.479 26.0736 73.3615 26.1344 73.2205 26.1814C73.0823 26.2284 72.9496 26.2519 72.8224 26.2519ZM76.2771 26.2354C76.2274 26.2354 76.1831 26.2201 76.1444 26.1897C76.1057 26.1593 76.0781 26.1179 76.0615 26.0653L75.2279 23.2951C75.2003 23.2039 75.2017 23.132 75.2321 23.0795C75.2652 23.0242 75.3178 22.9965 75.3897 22.9965C75.4367 22.9965 75.4795 23.0104 75.5182 23.038C75.5569 23.0629 75.5846 23.103 75.6012 23.1583L76.3269 25.6879H76.2356L76.9075 23.1831C76.9185 23.1417 76.9434 23.1071 76.9821 23.0795C77.0208 23.0518 77.0651 23.038 77.1148 23.038C77.1591 23.038 77.2005 23.0504 77.2392 23.0753C77.2807 23.0974 77.307 23.132 77.318 23.179L77.994 25.6879H77.911L78.6409 23.1375C78.6686 23.0435 78.7391 22.9965 78.8524 22.9965C78.9298 22.9965 78.9796 23.0269 79.0017 23.0878C79.0238 23.1458 79.0238 23.2149 79.0017 23.2951L78.1682 26.0612C78.1488 26.1137 78.1198 26.1566 78.0811 26.1897C78.0451 26.2201 78.0023 26.2354 77.9525 26.2354C77.9 26.2354 77.8544 26.2188 77.8157 26.1856C77.7797 26.1524 77.7535 26.1123 77.7369 26.0653L77.0692 23.4859H77.1687L76.4928 26.0612C76.4734 26.1137 76.4444 26.1566 76.4057 26.1897C76.3697 26.2201 76.3269 26.2354 76.2771 26.2354ZM80.01 26.2519C79.786 26.2519 79.5883 26.2036 79.4169 26.1068C79.2455 26.0073 79.1101 25.8718 79.0105 25.7004C78.9138 25.5262 78.8654 25.3272 78.8654 25.1032C78.8654 24.8765 78.9138 24.6775 79.0105 24.506C79.1101 24.3319 79.2455 24.1964 79.4169 24.0996C79.5883 24.0001 79.786 23.9503 80.01 23.9503C80.2311 23.9503 80.4274 24.0001 80.5988 24.0996C80.7702 24.1964 80.9043 24.3319 81.0011 24.506C81.1006 24.6775 81.1504 24.8765 81.1504 25.1032C81.1504 25.3272 81.102 25.5262 81.0052 25.7004C80.9085 25.8718 80.7744 26.0073 80.603 26.1068C80.4316 26.2036 80.2339 26.2519 80.01 26.2519ZM80.01 25.8787C80.1537 25.8787 80.2809 25.8455 80.3915 25.7792C80.5021 25.7128 80.5878 25.6216 80.6486 25.5055C80.7122 25.3894 80.744 25.2553 80.744 25.1032C80.744 24.9512 80.7122 24.8171 80.6486 24.701C80.5878 24.5821 80.5021 24.4895 80.3915 24.4231C80.2809 24.3568 80.1537 24.3236 80.01 24.3236C79.8662 24.3236 79.739 24.3568 79.6284 24.4231C79.5178 24.4895 79.4308 24.5821 79.3672 24.701C79.3036 24.8171 79.2718 24.9512 79.2718 25.1032C79.2718 25.2553 79.3036 25.3894 79.3672 25.5055C79.4308 25.6216 79.5178 25.7128 79.6284 25.7792C79.739 25.8455 79.8662 25.8787 80.01 25.8787ZM81.9831 24.8171C81.9831 24.6512 82.0232 24.5033 82.1034 24.3733C82.1863 24.2406 82.2969 24.1356 82.4352 24.0582C82.5734 23.9808 82.7254 23.942 82.8913 23.942C83.0572 23.942 83.1802 23.9697 83.2604 24.025C83.3434 24.0775 83.3751 24.1411 83.3558 24.2158C83.3475 24.2545 83.3309 24.2849 83.306 24.307C83.2839 24.3263 83.2576 24.3388 83.2272 24.3443C83.1968 24.3498 83.1636 24.3485 83.1277 24.3402C82.9508 24.3042 82.7918 24.3015 82.6508 24.3319C82.5098 24.3623 82.3978 24.419 82.3149 24.5019C82.2347 24.5848 82.1946 24.6899 82.1946 24.8171H81.9831ZM81.9873 26.2354C81.9209 26.2354 81.8698 26.2188 81.8338 26.1856C81.7979 26.1496 81.7799 26.0971 81.7799 26.028V24.1743C81.7799 24.1079 81.7979 24.0568 81.8338 24.0208C81.8698 23.9849 81.9209 23.9669 81.9873 23.9669C82.0564 23.9669 82.1075 23.9849 82.1407 24.0208C82.1767 24.054 82.1946 24.1052 82.1946 24.1743V26.028C82.1946 26.0944 82.1767 26.1455 82.1407 26.1814C82.1075 26.2174 82.0564 26.2354 81.9873 26.2354ZM84.3359 26.2354C84.2142 26.2354 84.1064 26.2022 84.0124 26.1358C83.9184 26.0695 83.8451 25.9796 83.7926 25.8663C83.7401 25.7502 83.7138 25.6174 83.7138 25.4682V23.2039C83.7138 23.1431 83.7332 23.0933 83.7719 23.0546C83.8106 23.0159 83.8603 22.9965 83.9212 22.9965C83.982 22.9965 84.0317 23.0159 84.0704 23.0546C84.1091 23.0933 84.1285 23.1431 84.1285 23.2039V25.4682C84.1285 25.5704 84.1479 25.6548 84.1866 25.7211C84.2253 25.7875 84.275 25.8206 84.3359 25.8206H84.4395C84.4948 25.8206 84.5391 25.84 84.5722 25.8787C84.6082 25.9174 84.6261 25.9672 84.6261 26.028C84.6261 26.0888 84.5999 26.1386 84.5474 26.1773C84.4948 26.216 84.4271 26.2354 84.3441 26.2354H84.3359ZM85.943 26.2519C85.7273 26.2519 85.5324 26.2022 85.3582 26.1026C85.1868 26.0004 85.05 25.8621 84.9477 25.6879C84.8481 25.5138 84.7984 25.3175 84.7984 25.0991C84.7984 24.8807 84.844 24.6857 84.9352 24.5143C85.0292 24.3402 85.1564 24.2033 85.3168 24.1038C85.4771 24.0015 85.6582 23.9503 85.86 23.9503C86.0231 23.9503 86.1738 23.9849 86.312 24.054C86.4503 24.1204 86.5664 24.2116 86.6604 24.3277V23.208C86.6604 23.1444 86.6797 23.0933 86.7184 23.0546C86.7599 23.0159 86.8111 22.9965 86.8719 22.9965C86.9355 22.9965 86.9866 23.0159 87.0253 23.0546C87.064 23.0933 87.0834 23.1444 87.0834 23.208V25.0991C87.0834 25.3175 87.0322 25.5138 86.9299 25.6879C86.8304 25.8621 86.6949 26.0004 86.5235 26.1026C86.3521 26.2022 86.1586 26.2519 85.943 26.2519ZM85.943 25.8787C86.084 25.8787 86.2097 25.8455 86.3203 25.7792C86.4309 25.7101 86.518 25.6161 86.5816 25.4972C86.6452 25.3783 86.677 25.2456 86.677 25.0991C86.677 24.9498 86.6452 24.8171 86.5816 24.701C86.518 24.5848 86.4309 24.4936 86.3203 24.4273C86.2097 24.3581 86.084 24.3236 85.943 24.3236C85.8047 24.3236 85.6789 24.3581 85.5656 24.4273C85.455 24.4936 85.3665 24.5848 85.3002 24.701C85.2366 24.8171 85.2048 24.9498 85.2048 25.0991C85.2048 25.2456 85.2366 25.3783 85.3002 25.4972C85.3665 25.6161 85.455 25.7101 85.5656 25.7792C85.6789 25.8455 85.8047 25.8787 85.943 25.8787Z" fill="#363636"/>
</g>
<defs>
<clipPath id="clip0_174_4">
<rect width="103" height="36" fill="white"/>
</clipPath>
</defs>
</svg>
